<?xml version="1.0" standalone="no"?>
<!DOCTYPE svg PUBLIC "-//W3C//DTD SVG 20010904//EN"
 "http://www.w3.org/TR/2001/REC-SVG-20010904/DTD/svg10.dtd">
<svg version="1.0" xmlns="http://www.w3.org/2000/svg"
 width="1081.000000pt" height="1081.000000pt" viewBox="0 0 1081.000000 1081.000000"
 preserveAspectRatio="xMidYMid meet">

<g transform="translate(0.000000,1081.000000) scale(0.100000,-0.100000)"
fill="#000000" stroke="none">
<path d="M1740 10638 c-673 -41 -1258 -501 -1474 -1161 -68 -206 -80 -286 -80
-532 0 -192 3 -233 22 -325 98 -452 354 -827 734 -1074 377 -245 860 -331
1298 -232 663 150 1145 649 1282 1327 20 98 23 143 22 319 0 173 -4 221 -23
310 -168 788 -808 1340 -1591 1372 -41 2 -127 0 -190 -4z m430 -371 c409 -97
726 -354 909 -738 128 -268 163 -584 97 -869 -44 -190 -79 -267 -204 -447
l-87 -124 -5 638 c-3 351 -9 646 -14 656 -13 27 -84 64 -151 78 -77 17 -631
18 -1095 2 -184 -6 -399 -8 -478 -5 -78 4 -155 4 -171 0 -15 -5 -48 -25 -72
-47 l-44 -39 -5 -642 -5 -642 -88 127 c-49 69 -104 159 -122 199 -132 284
-150 653 -49 962 146 448 547 808 999 897 125 25 130 25 310 22 137 -3 190 -8
275 -28z m370 -1818 l0 -670 -73 -34 c-198 -89 -383 -129 -607 -129 -218 1
-401 40 -597 129 l-73 34 0 670 0 671 675 0 675 0 0 -671z"/>
<path d="M1400 8700 l0 -170 170 0 170 0 0 170 0 170 -170 0 -170 0 0 -170z"/>
<path d="M1990 8700 l0 -170 170 0 170 0 0 170 0 170 -170 0 -170 0 0 -170z"/>
<path d="M1400 8030 l0 -170 170 0 170 0 0 170 0 170 -170 0 -170 0 0 -170z"/>
<path d="M1990 8030 l0 -170 170 0 170 0 0 170 0 170 -170 0 -170 0 0 -170z"/>
<path d="M8815 10639 c-650 -42 -1207 -460 -1449 -1085 -78 -203 -111 -385
-110 -619 0 -146 4 -202 22 -293 61 -305 189 -566 395 -802 241 -277 594 -473
975 -542 139 -25 411 -29 537 -9 637 102 1115 492 1338 1091 282 759 -44 1640
-760 2048 -202 115 -457 194 -669 207 -49 3 -107 7 -129 9 -22 1 -90 -1 -150
-5z m445 -364 c444 -99 778 -405 925 -848 54 -164 66 -236 72 -433 6 -201 -6
-310 -52 -469 -119 -410 -422 -726 -815 -850 -164 -51 -303 -68 -510 -62 -198
6 -288 21 -430 72 -415 150 -707 506 -812 989 -32 146 -32 446 0 591 62 287
180 505 371 687 189 180 414 287 696 333 122 19 450 14 555 -10z"/>
<path d="M9180 9879 c-40 -25 -150 -137 -169 -173 -13 -23 -9 -30 78 -129 50
-58 91 -108 91 -111 0 -3 -245 -6 -545 -6 l-545 0 2 -167 3 -168 804 0 803 0
28 34 c16 18 33 53 39 76 33 129 3 173 -290 436 -91 82 -180 167 -198 189 -36
46 -52 48 -101 19z"/>
<path d="M8169 8775 c-61 -33 -88 -169 -50 -248 21 -44 111 -135 321 -327 63
-57 131 -123 150 -146 19 -24 42 -43 51 -43 27 -1 102 54 161 118 90 97 91 84
-16 208 l-94 108 544 3 544 2 0 170 0 170 -792 0 c-666 -1 -797 -3 -819 -15z"/>
<path d="M5130 10634 c-399 -27 -698 -71 -1005 -148 -194 -49 -497 -148 -492
-160 3 -6 26 -78 53 -161 26 -82 49 -152 50 -153 1 -2 71 19 156 46 352 116
693 186 1083 224 169 16 693 16 855 0 400 -40 761 -115 1096 -227 75 -25 138
-44 139 -43 6 7 106 330 103 334 -8 8 -243 78 -383 114 -287 74 -574 124 -885
155 -147 15 -652 27 -770 19z"/>
<path d="M4745 7907 c-7 -36 -35 -270 -35 -299 l0 -26 108 -6 c173 -10 212
-16 212 -31 0 -7 -351 -224 -780 -482 -428 -257 -779 -472 -780 -477 0 -4 39
-70 87 -147 l86 -139 36 23 c422 261 1507 913 1509 907 2 -4 -15 -68 -37 -142
-23 -74 -41 -139 -41 -145 0 -13 298 -115 311 -107 5 3 9 14 9 25 0 32 63 191
160 403 153 334 173 420 117 505 -15 23 -42 48 -60 56 -20 9 -185 30 -437 55
-223 22 -417 42 -432 45 -23 4 -29 0 -33 -18z"/>
<path d="M6670 7280 c-127 -8 -205 -33 -240 -78 -20 -24 -20 -48 -20 -1328 l0
-1304 170 0 170 0 0 1180 0 1180 165 0 165 0 2 -1177 3 -1178 168 -3 167 -2 0
1303 c0 1458 7 1324 -76 1373 -37 22 -64 28 -152 35 -124 9 -356 9 -522 -1z"/>
<path d="M432 7058 c-308 -987 -331 -2042 -66 -3048 31 -117 102 -350 109
-358 2 -2 327 98 333 103 2 2 -19 70 -46 151 -111 335 -186 695 -224 1079 -17
172 -17 701 0 870 40 394 109 723 223 1073 28 85 49 155 47 156 -1 2 -73 24
-158 51 -85 26 -159 49 -165 52 -7 2 -28 -50 -53 -129z"/>
<path d="M10155 7137 c-88 -28 -161 -51 -162 -52 -1 0 24 -82 57 -180 317
-972 307 -2050 -29 -3095 -28 -85 -47 -158 -43 -161 16 -13 291 -103 297 -97
14 14 98 257 145 422 130 452 188 838 197 1326 8 391 -16 701 -82 1080 -44
251 -191 812 -213 809 -4 -1 -79 -24 -167 -52z"/>
<path d="M5210 6440 c-180 -8 -242 -24 -292 -77 l-23 -25 0 -881 0 -882 170 0
170 0 3 758 2 757 165 0 165 0 0 -760 0 -760 168 2 167 3 3 877 2 876 -26 32
c-50 58 -91 71 -263 81 -169 9 -168 9 -411 -1z"/>
<path d="M3560 5590 c-69 -9 -122 -31 -155 -64 l-25 -25 0 -466 0 -465 168 2
167 3 3 338 2 337 165 0 165 0 2 -337 3 -338 168 -3 167 -2 0 463 0 463 -32
31 c-72 68 -70 68 -423 70 -176 0 -345 -2 -375 -7z"/>
<path d="M3040 4070 l0 -170 2360 0 2360 0 0 170 0 170 -2360 0 -2360 0 0
-170z"/>
<path d="M1630 3556 c-722 -105 -1274 -636 -1422 -1370 -30 -148 -33 -471 -5
-608 70 -347 213 -622 451 -867 324 -333 748 -511 1212 -511 810 1 1483 551
1655 1352 27 122 36 390 19 525 -70 563 -423 1063 -929 1318 -117 58 -295 119
-429 146 -137 27 -413 35 -552 15z m440 -336 c555 -68 966 -461 1092 -1043 19
-87 22 -133 22 -307 0 -173 -3 -220 -22 -302 -29 -134 -64 -232 -121 -346
-186 -369 -502 -596 -931 -669 -135 -23 -395 -22 -520 2 -532 101 -903 479
-1026 1045 -27 121 -27 468 -1 589 28 131 65 238 119 345 164 331 445 554 818
651 156 41 400 55 570 35z"/>
<path d="M1951 2560 c-227 -12 -229 -15 -297 -318 l-5 -23 -237 3 c-372 5
-364 13 -486 -475 -63 -252 -79 -353 -66 -413 21 -93 68 -122 223 -134 145
-12 739 -12 885 0 176 14 223 48 230 165 3 42 -1 80 -12 111 -9 26 -16 51 -16
56 0 4 133 8 295 8 327 0 336 2 373 62 40 66 46 106 27 203 -23 125 -109 464
-146 579 -35 109 -65 148 -125 165 -52 15 -449 22 -643 11z m468 -377 c30
-114 71 -283 71 -293 0 -7 -64 -10 -207 -8 l-207 3 -38 150 c-20 83 -38 158
-38 168 0 16 16 17 205 17 l204 0 10 -37z m-646 -454 c21 -84 41 -158 44 -165
4 -12 -44 -14 -286 -14 -160 0 -291 4 -291 8 0 7 27 103 71 255 l20 67 202 0
202 0 38 -151z"/>
<path d="M8555 3559 c-801 -103 -1402 -748 -1465 -1570 -22 -294 37 -588 175
-864 296 -595 896 -948 1565 -922 160 6 269 23 405 62 294 85 526 222 735 434
564 571 647 1446 202 2112 -277 414 -689 675 -1172 744 -114 16 -334 18 -445
4z m486 -359 c254 -52 467 -161 645 -332 154 -148 260 -305 333 -493 73 -187
86 -262 86 -495 0 -190 -2 -213 -27 -312 -40 -157 -67 -214 -186 -397 l-107
-166 -3 219 c-2 217 -2 218 -28 252 -14 18 -41 43 -59 54 -31 19 -49 20 -479
20 l-446 0 0 289 c0 333 3 322 -98 363 -55 22 -69 23 -332 23 -303 0 -316 -2
-381 -67 l-29 -30 0 -639 c0 -589 -1 -639 -17 -639 -22 0 -145 130 -216 229
-126 175 -208 353 -248 541 -32 148 -32 381 -1 527 123 571 587 1001 1158
1073 107 14 317 4 435 -20z m-611 -1605 l0 -285 48 -50 48 -50 457 0 457 0 0
-254 0 -254 -85 -36 c-321 -134 -640 -166 -901 -91 -47 14 -107 37 -135 50
l-49 25 0 615 0 615 80 0 80 0 0 -285z"/>
<path d="M8374 2865 c-81 -39 -126 -84 -161 -161 -27 -60 -45 -189 -36 -264
l6 -50 168 0 169 0 0 80 0 80 250 0 250 0 0 175 0 175 -287 0 -288 0 -71 -35z"/>
<path d="M3735 818 c-20 -52 -103 -323 -100 -326 7 -7 229 -73 380 -112 430
-113 827 -167 1285 -177 390 -8 705 16 1065 82 215 39 629 146 651 167 6 6
-62 269 -77 299 -11 21 -43 15 -329 -57 -240 -62 -473 -104 -720 -131 -232
-25 -748 -25 -980 0 -354 39 -693 110 -990 207 -85 28 -161 54 -167 56 -7 3
-15 0 -18 -8z"/>
</g>
</svg>
