<svg width="100" height="101" viewBox="0 0 100 101" fill="none" xmlns="http://www.w3.org/2000/svg">
<path d="M31.0252 0.143196C26.7959 0.835602 23.0438 3.11866 20.6391 6.46838C19.5257 8.03097 18.3841 10.5479 18.0379 12.2509L17.9163 12.8216L17.411 12.962C16.6999 13.1772 15.128 13.8602 14.3046 14.3187C9.69169 16.9199 6.72559 21.5328 6.26711 26.81C6.20161 27.5399 6.22968 28.1481 6.37003 29.5984L6.56652 31.4417L5.12558 32.92C2.62732 35.4651 1.30801 37.7668 0.503326 40.9856C-0.806624 46.1599 0.484612 51.9892 3.87177 56.1903C4.11505 56.4991 4.35832 56.7985 4.40511 56.864C4.46125 56.9389 4.34897 57.2196 4.04955 57.7062C2.08462 60.9249 1.16766 65.0606 1.57936 68.7284C2.41211 75.9612 7.38992 81.9215 14.2484 83.8958C15.1186 84.1484 17.3081 84.5882 17.6824 84.5882C17.7105 84.5882 17.7666 85.29 17.7947 86.1508C17.8508 87.8631 18.0192 88.8549 18.5151 90.38C20.0122 94.9649 23.7737 98.7076 28.4333 100.251C30.3047 100.869 31.1468 101 33.2989 101C34.9363 101 35.3574 100.972 36.1995 100.794C38.8194 100.223 41.1679 99.0538 43.2264 97.276C45.3878 95.4234 47.5586 91.8584 48.3165 88.9204L48.5504 88.0315V79.4887V70.9554L49.4206 70.8992C50.244 70.8431 50.9177 70.9179 51.0861 71.0864C51.1235 71.1238 51.189 74.7168 51.2265 79.0677C51.292 87.7695 51.2639 87.3859 51.8814 87.6385C52.4335 87.8724 54.8288 87.966 57.4487 87.8631C60.0312 87.7601 63.6429 87.7414 63.9423 87.8256C64.064 87.8537 64.3166 88.228 64.6441 88.8268C65.5517 90.4923 66.3377 91.3251 67.5915 91.9333C68.5178 92.373 69.3225 92.5695 70.305 92.5695C74.4407 92.5882 77.4629 88.49 76.2091 84.5508C75.367 81.8934 73.1681 80.2841 70.3892 80.2841C68.602 80.2841 67.1611 80.8455 66.0008 82.0151C65.2991 82.7168 64.85 83.456 64.5973 84.3262L64.4476 84.8689H59.2546H54.0709V77.8981V70.9273H61.1634C69.1915 70.9273 68.4242 71.0021 69.1541 70.1226C69.8278 69.3086 69.7903 69.5893 69.7903 65.0325V60.9155H74.1412H78.4921V62.9927V65.0793L78.0524 65.2571C76.6208 65.8466 74.9459 67.3811 74.291 68.7097C73.6453 70.0103 73.4956 71.1331 73.7763 72.4992C74.2629 74.8665 75.7413 76.4665 78.1179 77.2057C79.1191 77.5145 80.6816 77.5238 81.6735 77.215C82.7589 76.8688 83.4232 76.4759 84.1998 75.6992C85.3881 74.5109 86.015 73.0045 86.015 71.3016C86.015 69.4208 85.0887 67.5588 83.6103 66.4641C83.0676 66.0618 82.0009 65.491 81.5892 65.3787C81.4208 65.3413 81.4115 65.2103 81.3647 62.4033C81.3179 59.25 81.2524 58.6886 80.822 58.2395L80.6161 58.0149H75.1986H69.7903V54.3658V50.7166L78.829 50.7353L87.8677 50.7634L88.0454 51.278C88.3916 52.2792 88.7378 52.8219 89.4864 53.5798C90.0946 54.1974 90.3846 54.4126 91.0303 54.7213C92.0876 55.2172 92.6677 55.3482 93.8373 55.3389C97.58 55.3202 100.228 52.4757 99.9847 48.7517C99.8163 46.1973 98.2724 44.2417 95.7554 43.3996C95.194 43.2125 94.9133 43.1844 93.7905 43.1844C92.6022 43.1844 92.4151 43.2125 91.7507 43.4464C89.9355 44.0827 88.5788 45.4675 88.0267 47.2546L87.8677 47.7692L78.829 47.7973L69.7903 47.816V44.1669V40.5177H74.9366H80.0922L80.5413 40.2838C81.3179 39.8908 81.3366 39.7973 81.374 36.1575L81.4021 33.051L82.0758 32.8358C84.4056 32.0873 85.9776 29.7761 85.9776 27.0907C85.9776 25.3691 85.3975 23.9281 84.1998 22.7305C83.0583 21.5702 81.5425 20.9621 79.8302 20.9621C78.1834 20.9621 76.7331 21.589 75.4886 22.8334C74.8991 23.4229 74.6933 23.7129 74.3471 24.4334C73.8231 25.5282 73.6828 26.1176 73.6828 27.1843C73.6828 28.251 73.8231 28.8405 74.3284 29.8978C74.9553 31.1984 75.7974 31.9656 77.6313 32.8826L78.4921 33.313V35.3528C78.4921 36.8124 78.4641 37.4206 78.3799 37.5048C78.2957 37.5891 77.2009 37.6171 74.029 37.6171H69.7903V33.4066C69.7903 28.672 69.8278 28.9621 69.0605 28.2416C68.2184 27.4557 68.8734 27.5118 61.0417 27.5118H54.0709V18.6696V9.82747H59.1049H64.1388L64.3634 10.3608C65.402 12.9059 67.8067 14.5994 70.3798 14.5994C72.0734 14.5994 73.3366 14.0567 74.6091 12.7749C75.526 11.8579 75.9097 11.2497 76.2465 10.155C76.5366 9.20057 76.5834 8.24618 76.3962 7.30114C75.9097 4.89645 74.4126 3.24965 72.0827 2.52918C70.595 2.07069 69.0511 2.20169 67.5541 2.92216C66.2348 3.54907 64.9248 5.05551 64.485 6.4216L64.3353 6.8988L63.3154 6.95494C62.754 6.99236 61.9868 6.99236 61.6219 6.97366C61.2476 6.94558 59.6476 6.88008 58.0476 6.82394C53.7715 6.68359 52.1528 6.85201 51.4136 7.53506L51.1703 7.75962V17.6404V27.5118H49.8604H48.5504V20.3258V13.1491L48.3165 12.2602C47.858 10.5479 46.8288 8.31168 45.7528 6.67423C45.0136 5.56078 43.4323 3.91399 42.2065 2.99702C40.5129 1.72449 38.3141 0.732674 36.2182 0.274193C35.0112 0.0215607 32.2322 -0.0532913 31.0252 0.143196ZM35.9281 3.22158C38.7913 3.88591 41.3551 5.57949 43.1422 7.98418C43.8065 8.89179 44.8451 10.9409 45.2475 12.1667C45.4159 12.6532 45.5937 13.4111 45.6405 13.8509C45.706 14.3374 45.7434 17.0977 45.7434 21.0743V27.5118H36.7702H27.7971L27.2637 27.989C26.9737 28.2603 26.6743 28.6065 26.59 28.7656C26.4591 29.0276 26.4403 30.9925 26.3936 49.1821L26.3468 69.3179L26.5433 69.6361C26.6555 69.8138 26.9737 70.1787 27.2544 70.4407L27.769 70.9273H36.6018C45.1352 70.9273 45.4346 70.9366 45.5937 71.1051C45.7434 71.2641 45.7528 71.863 45.7247 79.4981L45.6873 87.7227L45.4346 88.5648C44.9387 90.1648 43.8907 92.0923 42.7024 93.6269C40.9153 95.9099 38.0147 97.5754 35.0673 98.0058C28.4053 98.9883 22.0427 94.4128 20.9011 87.8256C20.8263 87.3672 20.7608 86.4502 20.7608 85.7672V84.5414L21.8087 84.3168C24.99 83.6619 27.3667 82.6513 29.5562 81.0233C30.5199 80.3215 31.3527 79.4794 31.6146 78.9741C31.9796 78.263 31.7644 77.4022 31.1374 77.0747C30.5012 76.7472 29.6965 77.1121 27.9468 78.5156C25.7199 80.3121 23.0625 81.3507 20.1245 81.594C17.514 81.8092 15.0251 81.3133 12.5736 80.0876C8.4566 78.0478 5.50921 74.2209 4.6016 69.739C4.34897 68.4852 4.37704 65.4161 4.64838 64.153C5.54663 60.0734 7.60513 57.0044 10.8613 54.8898C13.0414 53.4769 15.8297 52.5318 18.4309 52.326C19.9748 52.195 20.3865 51.9424 20.452 51.0628C20.5081 50.3798 20.2836 49.9868 19.6847 49.6874C19.2543 49.4722 19.1233 49.4535 18.1409 49.4722C14.2484 49.5377 9.97239 51.3903 6.90337 54.3377L6.47296 54.7494L5.92091 54.0196C5.18172 53.0558 4.95716 52.6909 4.43318 51.6523C3.26358 49.3318 2.7396 46.5435 2.96416 43.9517C3.27294 40.5458 4.51739 37.7294 6.76302 35.3996L7.68934 34.4358L8.02618 35.0159C8.94315 36.5879 10.1315 38.1224 11.2636 39.1891C12.4519 40.3119 13.1724 40.5739 13.8367 40.1154C14.2578 39.8347 14.4824 39.5072 14.5479 39.0955C14.6508 38.4592 14.5385 38.2815 13.1443 36.9154C12.1245 35.9142 11.6566 35.3715 11.1514 34.6042C8.98993 31.32 8.53145 27.5679 9.82269 23.8907C10.4777 22.0474 11.4601 20.5223 12.9385 19.0439C14.08 17.9117 14.9596 17.2568 16.2321 16.6205C19.6754 14.8801 23.652 14.9176 27.2263 16.7141C28.3211 17.2568 29.1819 17.8088 29.7901 18.3609C30.9222 19.3714 31.5491 19.6708 32.1012 19.4369C32.9527 19.072 33.2614 18.1644 32.7936 17.369C32.5035 16.8638 31.3152 15.769 30.3421 15.0953C28.1433 13.5889 25.355 12.6626 22.3514 12.4567C21.7245 12.4099 21.2005 12.3538 21.1631 12.3257C21.0695 12.2322 21.631 10.6602 22.0614 9.79005C23.6707 6.59003 26.4029 4.32568 29.7714 3.38065C31.6708 2.83795 34.0381 2.78181 35.9281 3.22158ZM71.4465 5.35493C71.8488 5.50464 72.1482 5.71049 72.6067 6.16897C73.3459 6.90816 73.6266 7.54442 73.6266 8.47074C73.6266 9.3222 73.3553 9.98653 72.719 10.6696C72.0173 11.4368 71.381 11.7269 70.436 11.7363C69.8371 11.7363 69.6406 11.6895 69.1073 11.4368C67.3669 10.6228 66.5529 8.73273 67.2827 7.18886C67.6196 6.46838 68.2839 5.77599 68.9763 5.42978C69.6968 5.07423 70.6137 5.0368 71.4465 5.35493ZM81.3553 24.1621C81.9448 24.4708 82.4594 25.0322 82.7869 25.7247C82.9928 26.1738 83.0302 26.3703 83.0302 27.1375C83.0302 27.8954 82.9928 28.1013 82.7869 28.541C82.3097 29.5609 81.5799 30.113 80.4758 30.3188C79.7647 30.4405 78.7635 30.3188 78.2114 30.0381C77.7062 29.7761 77.229 29.2615 76.9296 28.644C76.6956 28.1761 76.6676 28.0171 76.6676 27.1375C76.6676 26.2393 76.6956 26.1083 76.9296 25.6404C77.5845 24.3679 78.5202 23.8439 80.036 23.8907C80.7191 23.9188 80.9623 23.9656 81.3553 24.1621ZM66.8897 49.2195V68.0267H48.0826H29.2754V49.2195V30.4124H48.0826H66.8897V49.2195ZM95.2876 46.2628C95.9519 46.5622 96.2888 46.8803 96.6537 47.554C96.9624 48.1154 96.9718 48.1809 96.9718 49.126C96.9718 50.0336 96.9531 50.1552 96.6817 50.726C96.3543 51.4184 95.8958 51.9237 95.3063 52.2324C94.773 52.5225 93.2852 52.5412 92.5741 52.2699C92.0034 52.0453 91.2735 51.3716 90.9741 50.8008C90.132 49.1353 90.8244 46.9178 92.387 46.2628C93.2197 45.9166 94.5016 45.9166 95.2876 46.2628ZM81.2618 68.3167C83.2922 69.2711 83.6945 72.3214 81.9916 73.8185C81.3553 74.3799 80.9062 74.5297 79.8021 74.5297C78.9132 74.5297 78.7635 74.5016 78.2863 74.2677C77.6594 73.9589 77.2477 73.5191 76.9109 72.7986C76.6956 72.3495 76.6676 72.1624 76.6676 71.3483C76.6676 70.5343 76.6956 70.3472 76.9109 69.898C77.36 68.9436 78.0056 68.401 78.9974 68.1483C79.6711 67.9799 80.691 68.0548 81.2618 68.3167ZM70.8664 83.194C71.1751 83.2502 71.5868 83.3812 71.7927 83.4841C72.3541 83.7742 72.9997 84.4291 73.3085 85.028C73.5518 85.5145 73.5798 85.6642 73.5798 86.4128C73.5705 87.1707 73.5424 87.311 73.2804 87.8256C72.9342 88.4993 72.3915 89.014 71.6711 89.3414C71.2313 89.5473 71.0161 89.5941 70.305 89.5941C69.5938 89.5941 69.388 89.5567 68.9482 89.3508C68.2184 89.0046 67.7786 88.5929 67.4511 87.9286C66.5061 85.9824 67.6008 83.587 69.6313 83.1847C70.1927 83.0818 70.2582 83.0818 70.8664 83.194Z" fill="#0B72D1"/>
<path d="M57.954 34.7727C55.8394 34.9785 52.8826 36.092 49.4674 37.9633L47.9048 38.8148L46.6604 38.0662C44.2557 36.6159 42.2065 35.699 40.2229 35.1656C38.8194 34.7914 36.9854 34.6978 35.8907 34.9411C33.2334 35.5306 32.148 37.4955 32.7 40.7142C33.1211 43.1844 34.8334 46.8055 36.4615 48.6862C36.6767 48.9388 36.8545 49.154 36.8545 49.1634C36.8545 49.1821 36.3773 49.9119 35.7971 50.7728C32.4006 55.8722 31.6334 59.5588 33.4673 61.9728C34.0006 62.6652 34.7211 63.1799 35.5913 63.4606C36.4334 63.7413 38.0802 63.7506 39.2872 63.498C41.4861 63.0302 44.7422 61.6547 47.4838 60.0453L48.0358 59.7179L48.7844 60.1295C51.3107 61.5331 53.9493 62.7214 55.6148 63.2079C57.3739 63.7132 58.7213 63.8255 59.947 63.5728C60.892 63.3764 61.5377 63.0676 62.1646 62.4875C64.6067 60.2512 63.8862 56.1623 59.9938 50.2862C59.6195 49.7154 59.3107 49.2195 59.3107 49.1915C59.3107 49.1634 59.6663 48.6207 60.0967 47.9844C61.9868 45.2055 63.0067 43.0534 63.4277 40.9949C63.8488 38.9177 63.5026 37.43 62.3236 36.1949C61.7154 35.5586 61.257 35.2686 60.4336 35.0159C59.8067 34.8288 58.6183 34.7072 57.954 34.7727ZM39.5305 37.9914C40.6252 38.2908 42.4217 39.0206 44.0592 39.8253L45.5095 40.5364L45.1352 40.8733C44.9294 41.0604 43.4229 42.4546 41.7761 43.9797C40.1387 45.4955 38.7632 46.7493 38.7258 46.7681C38.6135 46.8148 37.0416 44.354 36.5644 43.3715C35.8533 41.8932 35.5258 40.8171 35.479 39.7692C35.4416 38.9739 35.4603 38.8429 35.6568 38.5154C35.7784 38.3095 36.0123 38.0569 36.1808 37.9633C36.7983 37.5984 38.155 37.6078 39.5305 37.9914ZM59.947 37.8885C61.1072 38.4779 60.9388 40.3493 59.4511 43.3715C58.7587 44.7751 57.6078 46.7493 57.4955 46.7306C57.3926 46.7119 50.7025 40.7049 50.7025 40.63C50.7025 40.5364 52.4709 39.5727 53.3692 39.1797C56.5973 37.7481 58.8148 37.3083 59.947 37.8885ZM48.8311 43.0066C49.2148 43.2967 49.8885 43.8394 50.3282 44.2043C51.3481 45.0558 55.3809 49.023 55.3809 49.1728C55.3809 49.3505 54.23 50.6605 53.0978 51.7739C51.5352 53.3178 48.3165 55.9564 47.989 55.9564C47.8112 55.9564 46.7165 55.105 45.3223 53.8886C43.9469 52.6909 41.0837 49.8652 40.8311 49.4722L40.672 49.2195L41.1211 48.6768C41.7855 47.8815 44.0779 45.6172 45.0416 44.8031C45.996 44.0078 47.9797 42.4826 48.0732 42.4826C48.1013 42.4826 48.4475 42.7166 48.8311 43.0066ZM39.3901 52.0921C40.2884 53.2991 42.1785 55.0862 44.4615 56.9202L45.4814 57.7342L44.8826 58.1085C44.5551 58.3143 43.8065 58.7354 43.2171 59.0348C40.9527 60.195 39.3714 60.6722 37.6966 60.6722C36.7141 60.6816 36.5831 60.6629 36.2088 60.4477C35.0673 59.8021 35.1515 58.1459 36.4428 55.4699C37.1913 53.926 38.5293 51.671 38.7258 51.6149C38.8007 51.5962 38.8942 51.5774 38.9223 51.5681C38.9597 51.5681 39.1656 51.802 39.3901 52.0921ZM57.8604 52.3541C58.768 53.6453 59.2172 54.4313 59.7505 55.6476C60.6113 57.6406 60.8827 59.2781 60.471 59.9892C60.1716 60.5038 59.7692 60.6722 58.7493 60.7097C57.2242 60.7752 55.6522 60.3728 53.6125 59.4091C52.4896 58.8757 50.6838 57.8278 50.7212 57.7249C50.7399 57.6874 51.4136 57.1073 52.2183 56.4336C53.023 55.7693 54.0709 54.8523 54.5575 54.3938C55.5025 53.5049 57.1587 51.7459 57.1587 51.6336C57.1587 51.4371 57.3458 51.6336 57.8604 52.3541Z" fill="#0B72D1"/>
<path d="M47.2405 44.7001C45.8463 44.934 44.5645 45.8791 44.0311 47.0674C43.3762 48.527 43.451 50.4171 44.2276 51.7364C45.8838 54.5715 50.4967 54.4686 51.9657 51.5586C52.3774 50.754 52.5084 50.1738 52.5177 49.2662C52.5177 47.451 51.6195 45.8323 50.216 45.1305C49.3926 44.7188 48.1855 44.5411 47.2405 44.7001ZM48.9528 47.8908C49.4113 48.1528 49.6078 48.499 49.6546 49.1165C49.692 49.5937 49.6639 49.7434 49.4487 50.099C49.0183 50.8382 48.092 51.1002 47.3341 50.7165C46.3048 50.1926 46.099 48.6206 46.9692 47.975C47.4744 47.6101 48.4007 47.5633 48.9528 47.8908Z" fill="#0B72D1"/>
</svg>
