<svg width="100" height="101" viewBox="0 0 100 101" fill="none" xmlns="http://www.w3.org/2000/svg">
<path d="M48.0615 0.913368C39.0829 1.23767 30.2433 4.14716 22.4878 9.3175C19.0501 11.6062 14.8805 15.0623 14.0651 16.2947C13.3053 17.4344 14.1578 18.6482 15.2419 17.9903C15.4179 17.8791 16.2518 17.1193 17.095 16.2947C18.9204 14.5064 19.5227 13.9875 21.1905 12.7459C27.862 7.75157 35.321 4.61971 43.0579 3.54487C45.5968 3.19277 46.6902 3.12791 49.544 3.12791C54.8904 3.12791 59.3658 3.83212 64.3231 5.45364C73.9596 8.60403 82.3452 14.562 88.368 22.5306C93.5105 29.3317 96.6702 37.3374 97.5875 45.8806C97.8006 47.8079 97.8747 52.1721 97.7357 54.1735C97.1983 61.892 95.1876 68.3873 91.2404 75.2255C90.9068 75.8 90.6103 76.2726 90.5732 76.2726C90.4713 76.2726 90.2767 75.5591 89.7671 73.3075C89.0629 70.2312 89.0814 70.259 88.4328 69.9718C88.0159 69.7865 87.7379 69.8421 87.3765 70.1756C87.0522 70.4721 87.043 70.7964 87.2931 71.6952C87.5248 72.5384 87.6452 73.0573 88.229 76.078C88.5903 77.9311 89.0073 79.3581 89.2945 79.7195C89.6745 80.2013 89.9061 80.2198 91.3052 79.8584C92.0094 79.6731 93.4179 79.3581 94.4371 79.145C97.9396 78.4222 99.033 78.0331 99.3017 77.3845C99.4314 77.0694 99.3758 76.7822 99.1256 76.4579C98.9496 76.2448 98.8847 76.2262 98.1249 76.2355C97.4392 76.2355 97.013 76.3189 95.5027 76.7266C93.8348 77.1806 92.6303 77.403 92.6303 77.2547C92.6303 77.2269 93.4086 75.6425 94.3537 73.743C96.1513 70.1571 96.7258 68.8135 97.5412 66.3118C98.6994 62.7351 99.4685 59.0473 99.8762 55.1464C100.061 53.3303 100.034 47.882 99.8298 45.9732C98.6994 35.6696 94.5298 26.2555 87.6545 18.4536C86.348 16.9711 83.4385 14.1265 82.0672 12.9775C73.209 5.59263 62.8313 1.47858 51.6752 0.94117C49.9425 0.857773 49.6367 0.848511 48.0615 0.913368Z" fill="#0B72D1"/>
<path d="M47.7743 12.5329C44.8277 12.7089 43.4564 13.1815 42.3537 14.4046C41.3716 15.4979 41.1028 16.4986 40.9268 19.612C40.7137 23.5129 40.4357 24.3932 39.2033 24.9954C38.4899 25.3383 37.8413 25.2827 36.8128 24.7638C35.8862 24.3005 35.358 23.9021 33.6438 22.3825C32.0872 21.0111 31.5034 20.5849 30.7622 20.3069C28.8904 19.6027 27.0465 20.0197 24.8969 21.6412C23.3773 22.7809 20.3103 26.1259 19.4763 27.5435C18.698 28.8778 18.4942 30.2121 18.8833 31.4815C19.2725 32.751 19.7265 33.4181 21.4222 35.2805C22.812 36.8001 23.4792 37.7267 23.7757 38.5143C24.2575 39.8023 23.7757 41.0161 22.5526 41.6091C21.8391 41.9612 20.8292 42.1373 18.7351 42.267C15.3716 42.4894 14.3153 42.7859 13.1663 43.8607C11.9988 44.9541 11.554 46.3162 11.3595 49.3924C11.0629 54.2848 11.8505 57.4259 13.7037 58.6953C14.6952 59.381 16.0758 59.6775 19.1057 59.8721C22.1634 60.0667 23.1456 60.4559 23.7479 61.6882C23.961 62.133 23.9888 62.272 23.9425 62.8001C23.8591 63.875 23.3124 64.7552 21.4036 66.84C20.0972 68.2855 19.6895 68.8044 19.291 69.6013C18.8555 70.463 18.6887 71.1116 18.6887 71.9177C18.6887 73.53 19.4207 74.8643 21.6816 77.3568C23.8869 79.803 26.2034 81.5635 27.8527 82.0546C28.8904 82.3603 30.1877 82.175 31.2532 81.5635C31.9945 81.1372 32.9304 80.396 34.2183 79.2192C36.1827 77.4402 36.822 77.0325 37.7764 76.9491C38.8234 76.8471 39.713 77.2548 40.1577 78.0146C40.6766 78.8949 40.7878 79.5157 40.9268 82.2955C40.9824 83.5278 41.0936 84.6212 41.2048 85.1679C41.6866 87.5307 43.0301 88.8557 45.4207 89.3283C48.7842 90.0047 54.0936 89.6618 56.2618 88.6333C56.9938 88.2905 57.7721 87.4843 58.1798 86.6319C58.7543 85.4551 58.884 84.649 59.0786 80.9983C59.1898 78.9876 59.3566 78.3667 59.9681 77.6811C60.5055 77.0881 60.9966 76.8842 61.8028 76.9398C62.8869 77.0047 63.9061 77.644 66.1948 79.664C68.539 81.7488 69.3452 82.1657 71.0871 82.1472C72.199 82.1472 72.755 81.9712 73.7186 81.3226C76.0073 79.7844 79.8526 75.8557 80.6773 74.2064C81.2703 73.0111 81.3815 71.4544 80.9553 70.2962C80.6402 69.4437 79.8804 68.3782 78.6759 67.0995C77.2582 65.5891 76.5911 64.7459 76.2204 63.9954C75.683 62.8928 75.7571 61.9662 76.4613 61.1879C77.2675 60.2891 78.0829 60.0296 80.631 59.8721C83.3829 59.7053 84.0686 59.6034 85.162 59.2235C86.7742 58.6675 87.8027 57.4074 88.1826 55.5079C88.7479 52.6911 88.6274 47.6504 87.9325 45.612C87.6267 44.7132 86.8206 43.7217 85.9959 43.2399C85.0137 42.6654 84.0686 42.4801 81.2981 42.3133C78.2867 42.128 77.5269 41.9519 76.7764 41.2755C75.9146 40.4972 75.683 39.3112 76.1741 38.2363C76.5262 37.458 77.147 36.6333 78.2589 35.4566C80.0936 33.5293 80.6217 32.7973 80.946 31.7502C81.3259 30.5179 81.2425 29.0261 80.7422 28.0346C79.7878 26.1537 75.7201 21.9933 73.5148 20.6497C72.6531 20.1216 72.0971 19.9826 70.9018 19.9919C69.2247 20.0011 68.5946 20.3162 66.343 22.3176C63.9895 24.3932 62.9147 25.0788 61.8306 25.19C60.8947 25.2827 60.0422 24.7916 59.5882 23.8928C59.2454 23.2257 59.1064 22.3361 59.0045 20.066C58.8284 16.406 58.4578 15.2014 57.1513 13.9783C56.2155 13.0981 54.8534 12.6997 52.1848 12.5236C50.5633 12.4217 49.5533 12.4217 47.7743 12.5329ZM53.2967 14.6547C55.0572 14.8586 55.678 15.2107 56.2432 16.3226C56.6602 17.1565 56.8085 18.009 56.9567 20.2606C57.1235 22.8921 57.2996 23.8094 57.837 24.912C58.5782 26.4224 59.9311 27.2007 61.8213 27.21C63.4891 27.21 64.4435 26.7189 66.6303 24.7082C68.085 23.3832 68.7892 22.8272 69.6046 22.4103C70.105 22.1508 70.2439 22.1138 70.9945 22.1138C71.7172 22.1138 71.8933 22.1508 72.338 22.3639C73.0886 22.7346 74.2468 23.6982 75.7757 25.2178C77.3972 26.8393 78.4906 28.1366 78.8149 28.8315C79.1114 29.4801 79.1392 30.4994 78.8797 31.1943C78.6018 31.9356 77.8049 33.0567 76.73 34.2057C74.7657 36.3183 74.3302 36.9576 74.0059 38.2456C73.5704 39.9413 73.9596 41.4053 75.1734 42.6098C76.2297 43.6754 77.3231 44.009 80.5846 44.2591C83.698 44.4908 84.8006 44.7873 85.5141 45.5842C86.2739 46.4274 86.3758 47.0945 86.3758 51.1159C86.3758 54.572 86.3109 55.2484 85.8847 56.0268C85.2546 57.185 83.9667 57.639 80.807 57.8336C77.5269 58.0282 76.8598 58.1857 75.8127 58.9641C73.8484 60.4466 73.2924 62.726 74.3673 64.8479C74.7194 65.5521 75.2753 66.2841 76.4799 67.6184C77.8605 69.1565 78.4813 69.9626 78.7871 70.5927C79.0187 71.056 79.0558 71.2413 79.0558 71.9177C79.0558 72.8443 78.8612 73.3169 78.0643 74.3824C77.3972 75.272 74.1171 78.5243 73.1905 79.2192C71.2817 80.6461 69.9011 80.3218 67.1121 77.783C64.2675 75.2071 63.6374 74.8457 61.9603 74.8643C60.5611 74.8735 58.9674 75.5592 58.2725 76.4395C57.4571 77.4772 57.1884 78.6077 56.9475 82.0638C56.8085 84.1764 56.6509 84.9918 56.234 85.8165C55.956 86.3724 55.7985 86.567 55.4464 86.8079C54.5569 87.401 53.6025 87.5214 49.8683 87.5307C46.7365 87.5307 45.7914 87.4473 45.0038 87.1044C44.0957 86.706 43.4564 85.7516 43.1969 84.4081C43.1321 84.0375 43.0023 82.7773 42.9282 81.6098C42.7707 79.3397 42.6132 78.3945 42.2703 77.5421C41.7978 76.3839 40.9268 75.587 39.6574 75.1422C39.1292 74.9662 38.842 74.9291 37.9154 74.9291C36.8313 74.9291 36.785 74.9384 36.1085 75.2627C35.2654 75.6704 34.8113 76.0132 33.1435 77.4772C31.4756 78.9505 31.0216 79.2841 30.1784 79.6918C29.5669 79.979 29.4001 80.0253 28.7885 80.0161C27.8805 80.0161 27.3338 79.7659 26.2404 78.8486C25.2582 78.0332 22.7565 75.4851 21.9967 74.5492C21.7094 74.1878 21.3388 73.6041 21.172 73.252C20.9125 72.7053 20.8755 72.5107 20.8755 71.9177C20.8848 70.6854 21.348 69.8792 23.1178 67.9705C24.6004 66.3675 25.1285 65.7003 25.5084 64.9591C26.7778 62.4387 25.9624 59.8906 23.4977 58.6768C22.3302 58.1023 21.5519 57.9448 19.3929 57.8336C16.326 57.6761 15.3901 57.4445 14.5098 56.6569C13.8149 56.0268 13.6667 55.5172 13.4906 53.1266C13.3794 51.5977 13.435 48.7438 13.5925 47.5948C13.75 46.5293 13.9446 46.0752 14.4635 45.5471C15.2789 44.741 16.187 44.5001 19.3003 44.2591C22.636 43.9997 23.6552 43.6939 24.8135 42.545C25.6474 41.7296 26.0088 40.9883 26.0736 39.9691C26.1941 38.1159 25.3509 36.5036 22.8213 33.7702C21.1905 32.0097 20.7365 31.1387 20.857 29.999C20.9867 28.7481 21.8206 27.5435 24.1556 25.2178C25.6289 23.7445 26.7037 22.8272 27.4728 22.3732C27.8619 22.1415 28.0009 22.1138 28.7422 22.1138C29.502 22.1138 29.641 22.1415 30.1969 22.4195C30.9938 22.8087 31.5868 23.2535 33.2361 24.6989C35.5341 26.7189 36.3495 27.1636 37.8691 27.2378C39.6388 27.3119 40.9083 26.7096 41.77 25.3661C42.5483 24.18 42.8356 22.9106 42.9653 20.1216C43.0209 19.0282 43.1043 17.8793 43.1599 17.5735C43.4749 15.7759 44.6146 14.9142 47.0145 14.664C48.0708 14.5528 52.3238 14.5435 53.2967 14.6547Z" fill="#0B72D1"/>
<path d="M47.8299 31.2593C41.3809 31.982 35.6731 35.7903 32.5505 41.4332C29.3538 47.2151 29.1963 54.0347 32.1336 59.9556C33.2918 62.2906 34.8114 64.3198 35.4137 64.3198C35.7102 64.3198 36.0159 64.0141 36.0159 63.7175C36.0159 63.3932 35.8214 63.0411 35.2932 62.4018C32.6339 59.1958 31.1514 54.2664 31.4757 49.7354C31.9575 43.0176 35.8862 37.2635 41.9924 34.3355C47.0052 31.9264 52.8983 31.9449 57.976 34.4004C59.3659 35.0675 60.2276 35.5957 61.2098 36.374C61.6082 36.6891 62.0715 37.0134 62.2383 37.0782C62.6275 37.245 62.9888 37.1153 63.1186 36.7632C63.2575 36.3647 62.9425 35.92 61.9974 35.2065C58.0501 32.2136 52.6574 30.7126 47.8299 31.2593Z" fill="#0B72D1"/>
<path d="M47.8021 36.9022C45.8378 37.069 42.7893 37.8844 42.0665 38.431C41.7237 38.6905 41.6681 39.0333 41.909 39.3762C42.1221 39.6819 42.6503 39.6449 43.6047 39.2557C45.4115 38.533 47.274 38.2457 49.7479 38.3013C52.3794 38.3754 54.3623 38.8573 56.512 39.9506C57.1143 40.2564 57.7073 40.5066 57.837 40.5066C58.1706 40.5066 58.4393 40.2008 58.4393 39.8209C58.4393 39.4225 58.1428 39.1538 57.1143 38.6442C54.6681 37.4118 50.6653 36.6613 47.8021 36.9022Z" fill="#0B72D1"/>
<path d="M64.2026 37.9678C63.6652 38.3384 63.7486 38.672 64.6752 39.8395C66.6025 42.2486 67.946 45.5936 68.363 48.9663C68.502 50.1431 68.4278 53.2472 68.224 54.3127C67.8812 56.1381 67.4457 57.4909 66.6859 59.1032C64.2119 64.3198 59.4029 68.0632 53.621 69.2771C52.0644 69.6106 49.3124 69.694 47.6353 69.4717C44.3922 69.0454 41.0473 67.6833 38.7957 65.8672C38.4158 65.5615 37.9154 65.2279 37.693 65.126C37.2946 64.9499 37.2853 64.9499 37.0444 65.126C36.8869 65.2464 36.7942 65.4132 36.7757 65.6171C36.7479 65.8765 36.8128 65.9784 37.239 66.3954C37.8691 67.0069 39.435 68.0632 40.6581 68.7119C42.4927 69.6848 44.6887 70.4168 46.8199 70.7781C48.3765 71.0376 51.5918 71.0098 53.2041 70.7225C57.6517 69.9349 61.3487 67.9799 64.3694 64.8202C67.2974 61.7625 69.1135 57.9542 69.7065 53.6178C69.9104 52.0797 69.8455 49.0497 69.5675 47.595C69.0301 44.7318 68.0665 42.3505 66.5098 39.997C65.8705 39.0241 64.7864 37.8195 64.5455 37.8195C64.4713 37.8195 64.3138 37.8844 64.2026 37.9678Z" fill="#0B72D1"/>
<path d="M47.8299 39.7652C44.2069 40.1544 40.3523 42.0724 38.3324 44.4908C37.8227 45.1209 37.7671 45.3803 38.0822 45.6768C38.4899 46.0567 38.7215 45.9641 39.75 44.9726C43.1506 41.7481 47.5241 40.4601 51.9995 41.3867C54.2048 41.85 56.6139 43.0546 58.2447 44.5186C58.9767 45.1857 59.2732 45.2784 59.6253 44.9726C60.1349 44.5464 59.9125 44.0368 58.8377 43.1843C56.0579 40.9698 53.1392 39.8764 49.6367 39.7281C49.053 39.7096 48.2376 39.7189 47.8299 39.7652Z" fill="#0B72D1"/>
<path d="M48.0615 42.6005C47.9318 42.619 47.5426 42.6839 47.1812 42.7395C43.0023 43.4066 39.1385 46.733 37.7856 50.8285C37.415 51.9405 37.2297 52.867 37.1556 53.9141L37.1 54.7665L37.3872 55.0538C37.6003 55.2669 37.7486 55.3318 37.9246 55.3132C38.3787 55.2576 38.5177 54.9333 38.6196 53.6639C38.7956 51.6625 39.3608 49.9668 40.3708 48.4658C40.9082 47.6689 42.2055 46.3995 43.0579 45.8435C46.2546 43.7402 50.5911 43.4437 54.0565 45.093C57.4293 46.6867 59.5141 49.6981 59.8384 53.4693C59.894 54.1087 59.9959 54.7665 60.07 54.9333C60.3017 55.5171 61.0707 55.4151 61.2746 54.7758C61.4228 54.3403 61.2839 52.9319 60.9966 51.8015C59.8384 47.2519 56.3266 43.8699 51.6752 42.8136C50.9246 42.6375 48.5989 42.5078 48.0615 42.6005Z" fill="#0B72D1"/>
<path d="M47.8392 45.5193C46.3566 45.7324 44.5868 46.52 43.3823 47.4836C41.1863 49.2534 40.0466 51.8571 40.0558 55.1002C40.0651 56.7402 40.2226 57.7317 40.76 59.3995C41.2789 60.9932 41.7144 61.4102 42.2889 60.8357C42.5669 60.5577 42.5484 60.2427 42.1777 59.3439C41.8997 58.6397 41.5198 56.768 41.4365 55.6561C41.3716 54.7481 41.5013 53.3026 41.7237 52.4131C41.9368 51.5791 42.6132 50.2634 43.1784 49.5777C44.105 48.4658 45.6339 47.5022 47.1813 47.0667C48.2098 46.7794 50.0815 46.7794 51.1656 47.0667C52.12 47.3261 53.6025 48.0674 54.3345 48.6604C55.9468 49.9576 56.966 51.8942 57.1143 53.9605C57.1791 54.9519 57.0587 55.4615 56.6139 55.9804C56.1414 56.5364 55.6503 56.7587 54.9183 56.768C53.7878 56.768 53.0836 56.1287 52.8335 54.8592C52.7593 54.4793 52.6574 53.9605 52.6018 53.6917C52.4721 53.0802 51.9069 52.2092 51.388 51.8293C49.8776 50.7081 47.6446 51.0047 46.4863 52.4779C45.9026 53.2099 45.7173 53.8215 45.708 54.9612C45.708 57.6946 47.0145 60.3354 49.3402 62.2719C51.0173 63.6711 53.3431 64.5884 55.224 64.5977C55.7707 64.5977 55.8819 64.5699 56.0765 64.366C56.2155 64.2363 56.3081 64.0324 56.3081 63.8749C56.3081 63.4302 56.0394 63.2819 55.0851 63.1892C53.3245 63.0039 52.157 62.6148 50.9525 61.7994C49.2012 60.6226 47.867 58.7694 47.311 56.768C47.0145 55.7024 47.0052 54.2292 47.2925 53.701C47.728 52.8856 48.4229 52.515 49.4144 52.5706C50.656 52.6262 51.2212 53.2748 51.4621 54.85C51.6196 55.9711 51.9069 56.6012 52.4999 57.1757C53.306 57.9633 54.4364 58.3247 55.4557 58.1208C57.0494 57.8058 58.1798 56.6754 58.4671 55.1187C58.6987 53.8771 58.1984 51.644 57.3552 50.1429C56.8456 49.2534 55.5669 47.8543 54.6866 47.2242C52.713 45.825 50.1371 45.1857 47.8392 45.5193Z" fill="#0B72D1"/>
<path d="M47.7927 48.4288C46.6994 48.6697 45.5782 49.2998 44.7165 50.1615C42.8726 52.0054 42.3908 54.9705 43.3915 58.2784C44.0679 60.5114 45.4578 62.7445 46.9959 64.0603C47.6723 64.644 47.8947 64.7089 48.2838 64.4031C48.7471 64.0325 48.6267 63.7638 47.4221 62.5129C45.5133 60.5485 44.4014 58.0004 44.2903 55.3782C44.2161 53.4416 44.6146 52.2185 45.6987 51.1251C46.653 50.1615 47.802 49.6797 49.1734 49.6797C50.6374 49.6797 51.7678 50.143 52.7963 51.1622C53.5839 51.9405 53.9545 52.6818 54.1399 53.8493C54.3066 54.8593 54.4642 55.2114 54.7885 55.2948C55.678 55.5172 55.8633 54.3497 55.2332 52.478C54.2603 49.5592 50.9339 47.7524 47.7927 48.4288Z" fill="#0B72D1"/>
<path d="M48.9881 54.0625C48.6268 54.2479 48.497 54.7667 48.6175 55.5636C48.8584 57.1481 49.4051 58.3156 50.4521 59.4182C51.8049 60.8544 53.4913 61.6605 55.1777 61.6698C56.1506 61.6791 56.3081 61.5864 56.3081 61.0119C56.3081 60.595 56.0394 60.4467 55.1407 60.3355C54.1677 60.2151 53.7971 60.1131 52.9354 59.6591C51.2675 58.7974 50.1927 57.1203 49.924 54.9706C49.8776 54.5907 49.785 54.2386 49.7109 54.1737C49.5163 53.9792 49.2383 53.9421 48.9881 54.0625Z" fill="#0B72D1"/>
<path d="M8.91327 22.1601C8.6075 22.262 7.35661 22.5493 6.13352 22.8087C2.177 23.6426 1.22261 23.9391 0.759321 24.4951C0.42575 24.8935 0.453548 25.2549 0.85198 25.6533L1.18555 25.9869L1.85269 25.9313C2.22333 25.8942 3.2889 25.6626 4.23402 25.4124C5.976 24.9491 7.17129 24.6989 7.25468 24.7823C7.31954 24.8379 6.75433 25.9591 5.62389 28.0439C4.47493 30.1473 3.47422 32.473 2.60323 35.086C0.379421 41.7852 -0.426708 48.6141 0.212636 55.5172C1.50986 69.6661 8.62603 82.4993 19.847 90.9313C30.0579 98.6034 42.9931 102.134 55.6132 100.679C63.2482 99.8079 70.4015 97.2691 76.9061 93.1273C80.5105 90.8293 85.3566 86.7894 86.0052 85.5385C86.3758 84.8251 85.9681 83.9263 85.2824 83.9263C84.9952 83.9263 84.8284 84.056 83.7721 85.0382C77.1748 91.2185 70.0401 95.3047 62.3772 97.3062C57.8555 98.4922 53.9546 98.937 48.9603 98.8536C44.9945 98.7887 42.1314 98.4273 38.5455 97.5378C19.7728 92.8956 5.46637 77.2363 2.61249 58.2043C2.15846 55.1743 1.97315 50.6711 2.18626 47.7153C2.63102 41.6184 3.94677 36.4851 6.43002 31.1109C7.31954 29.1929 9.15418 25.8664 9.33023 25.8664C9.42289 25.8664 9.6916 26.8579 10.2198 29.2022C10.7108 31.4167 10.8498 31.7873 11.2946 32.056C11.7394 32.334 12.0451 32.3155 12.425 31.9819C12.8605 31.5927 12.8883 31.3796 12.6196 30.4345C12.4806 29.9898 12.2304 28.8686 12.0544 27.9513C11.0722 22.8272 10.7942 22.086 9.88619 22.0118C9.63601 21.9933 9.24684 22.0582 8.91327 22.1601Z" fill="#0B72D1"/>
</svg>
