<?xml version="1.0" standalone="no"?>
<!DOCTYPE svg PUBLIC "-//W3C//DTD SVG 20010904//EN"
 "http://www.w3.org/TR/2001/REC-SVG-20010904/DTD/svg10.dtd">
<svg version="1.0" xmlns="http://www.w3.org/2000/svg"
 width="1081.000000pt" height="1080.000000pt" viewBox="0 0 1081.000000 1080.000000"
 preserveAspectRatio="xMidYMid meet">

<g transform="translate(0.000000,1080.000000) scale(0.100000,-0.100000)"
fill="#000000" stroke="none">
<path d="M5295 10791 c-151 -25 -253 -77 -355 -180 -131 -131 -192 -284 -193
-481 -2 -410 290 -688 698 -668 241 13 434 135 535 341 58 119 74 191 74 327
0 137 -16 208 -75 329 -77 156 -221 272 -394 316 -73 19 -222 27 -290 16z
m225 -338 c74 -24 149 -95 186 -175 25 -55 29 -75 29 -158 0 -82 -4 -103 -26
-151 -33 -71 -87 -124 -158 -158 -48 -22 -69 -26 -151 -26 -77 1 -104 5 -140
23 -70 34 -114 75 -147 139 -112 209 -17 463 192 514 55 13 162 9 215 -8z"/>
<path d="M4328 9682 c-25 -9 -505 -282 -1067 -606 -987 -571 -1020 -591 -1038
-630 -37 -82 -17 -153 58 -204 29 -20 43 -23 94 -20 59 4 83 18 1075 592 558
324 1027 600 1042 614 54 50 62 141 18 202 -41 57 -110 77 -182 52z"/>
<path d="M6378 9688 c-50 -13 -104 -73 -113 -127 -9 -54 23 -123 74 -156 42
-28 1970 -1144 2020 -1169 69 -36 170 -14 214 48 29 41 31 138 4 178 -12 18
-348 217 -1015 602 -548 316 -1017 586 -1042 599 -56 30 -94 37 -142 25z"/>
<path d="M9386 8428 c-356 -33 -586 -284 -586 -643 0 -311 179 -576 444 -661
106 -33 251 -35 371 -4 326 84 508 329 493 664 -11 230 -116 427 -292 544
-125 84 -260 115 -430 100z m187 -334 c68 -23 140 -92 179 -172 31 -62 33 -73
33 -172 0 -95 -3 -110 -27 -156 -35 -66 -106 -128 -171 -150 -70 -24 -196 -24
-264 -1 -73 25 -136 85 -175 165 -29 59 -33 76 -33 152 0 56 6 103 18 137 31
88 123 175 217 204 45 13 174 10 223 -7z"/>
<path d="M1190 8409 c-195 -50 -348 -175 -435 -354 -95 -194 -87 -428 19 -620
50 -88 161 -200 246 -248 112 -61 197 -82 335 -81 102 0 132 5 200 27 113 37
196 90 280 178 198 208 238 483 108 749 -137 280 -453 427 -753 349z m294
-320 c70 -26 139 -92 174 -167 23 -50 27 -70 27 -157 0 -93 -2 -105 -33 -167
-37 -75 -72 -110 -152 -147 -47 -22 -68 -26 -151 -26 -87 0 -101 3 -162 33
-72 36 -113 80 -149 159 -32 70 -32 217 0 287 45 98 106 156 195 187 73 25
181 25 251 -2z"/>
<path d="M5275 8416 c-56 -18 -399 -191 -664 -336 -510 -277 -1185 -679 -1591
-945 -280 -184 -324 -282 -307 -680 8 -202 6 -363 -23 -1395 -10 -331 -2 -785
16 -935 22 -183 78 -284 216 -387 303 -226 1497 -927 2060 -1209 223 -112 298
-139 404 -146 132 -9 230 24 429 144 55 33 217 127 360 208 143 82 424 245
625 363 467 275 727 427 932 543 188 107 258 169 306 271 55 117 55 125 53
618 -1 250 3 570 8 710 29 704 23 1333 -14 1514 -33 157 -128 287 -260 353
-187 95 -443 244 -945 553 -452 277 -611 373 -815 487 -198 111 -476 250 -539
268 -60 18 -196 18 -251 1z m234 -335 c97 -40 236 -119 491 -279 118 -74 241
-148 273 -165 32 -17 54 -34 50 -37 -24 -22 -2161 -1274 -2173 -1274 -19 0
-953 535 -946 542 3 2 492 283 1088 623 794 454 1091 619 1114 619 17 0 63
-13 103 -29z m1681 -975 c311 -176 517 -299 536 -320 44 -47 52 -92 66 -410 9
-224 9 -359 -2 -709 -8 -237 -15 -682 -16 -987 -3 -421 -6 -566 -16 -599 l-13
-44 -1075 -625 c-591 -343 -1081 -626 -1087 -629 -10 -4 -13 252 -13 1258 l0
1264 880 513 c484 283 889 525 900 539 36 46 45 96 26 146 -21 56 -52 85 -107
101 l-44 13 -908 -509 -908 -509 -464 262 c-256 144 -465 265 -465 268 1 11
91 67 380 236 464 273 1811 1034 1820 1030 3 -2 232 -132 510 -289z m-3694
-797 c253 -144 468 -270 479 -281 19 -18 20 -28 15 -266 -9 -463 -7 -562 15
-607 28 -55 76 -85 137 -85 63 0 102 20 136 73 l27 42 5 326 5 326 458 -265
457 -265 0 -1263 c0 -695 -1 -1264 -3 -1264 -2 0 -487 279 -1078 620 -818 471
-1079 627 -1096 651 l-23 32 0 1243 c0 684 2 1244 4 1244 2 0 210 -118 462
-261z"/>
<path d="M1241 6728 c-25 -13 -54 -36 -65 -51 -20 -27 -20 -41 -22 -540 -1
-281 -7 -618 -13 -747 -13 -299 -14 -874 -1 -1049 12 -148 27 -197 78 -245 44
-41 122 -48 171 -14 48 32 74 80 74 137 0 25 -1 215 -3 421 -1 206 4 506 11
665 16 356 17 1093 2 1226 -18 150 -56 206 -146 216 -31 3 -53 -1 -86 -19z"/>
<path d="M9435 6736 c-37 -16 -70 -52 -84 -89 -8 -20 -11 -411 -11 -1256 l0
-1228 23 -33 c33 -49 82 -72 144 -67 65 5 100 28 124 82 18 41 20 78 23 627 2
321 9 725 16 898 18 472 1 900 -39 977 -44 87 -121 122 -196 89z"/>
<path d="M9350 3700 c-203 -25 -397 -174 -503 -386 -84 -167 -76 -404 20 -587
44 -84 141 -190 221 -244 143 -95 349 -128 522 -84 221 56 392 201 465 395
117 312 -28 694 -318 836 -130 64 -268 87 -407 70z m255 -352 c68 -35 128 -97
162 -166 24 -49 28 -69 28 -142 0 -73 -4 -93 -28 -141 -34 -70 -110 -142 -185
-177 -45 -20 -72 -26 -133 -26 -67 0 -86 5 -142 32 -223 110 -270 398 -91 561
87 80 122 93 239 89 84 -4 108 -8 150 -30z"/>
<path d="M1160 3679 c-238 -61 -394 -227 -451 -477 -27 -118 -7 -317 43 -435
112 -265 340 -409 627 -394 188 9 319 65 441 187 132 131 185 271 184 480 0
113 -3 134 -31 215 -44 127 -76 179 -162 265 -87 87 -164 131 -277 160 -104
27 -270 26 -374 -1z m347 -333 c100 -50 161 -136 183 -254 27 -149 -43 -290
-175 -356 -141 -70 -275 -59 -375 31 -149 134 -169 390 -42 526 86 92 282 118
409 53z"/>
<path d="M2290 2568 c-48 -25 -90 -89 -90 -138 0 -14 10 -46 23 -70 22 -44 37
-53 1062 -645 l1040 -600 57 0 c86 0 146 53 155 138 6 50 -20 108 -61 138 -44
33 -2026 1177 -2057 1188 -47 16 -80 14 -129 -11z"/>
<path d="M8380 2576 c-47 -17 -2039 -1171 -2067 -1198 -12 -12 -30 -41 -39
-65 -15 -37 -15 -50 -4 -85 24 -82 101 -130 183 -114 35 6 2066 1173 2103
1208 28 25 48 98 40 143 -9 48 -56 99 -104 113 -49 15 -68 15 -112 -2z"/>
<path d="M5330 1350 c-134 -22 -266 -88 -372 -188 -304 -287 -308 -699 -11
-972 136 -124 273 -182 433 -183 61 0 118 6 160 17 307 83 534 372 534 676 0
178 -57 304 -204 451 -81 81 -110 103 -181 137 -126 60 -244 80 -359 62z m191
-345 c141 -50 230 -200 216 -365 -7 -84 -35 -148 -92 -209 -66 -70 -127 -94
-240 -95 -77 -1 -98 3 -146 25 -102 48 -168 139 -190 263 -29 168 56 326 203
377 67 23 189 25 249 4z"/>
</g>
</svg>
