<?xml version="1.0" standalone="no"?>
<!DOCTYPE svg PUBLIC "-//W3C//DTD SVG 20010904//EN"
 "http://www.w3.org/TR/2001/REC-SVG-20010904/DTD/svg10.dtd">
<svg version="1.0" xmlns="http://www.w3.org/2000/svg"
 width="1081.000000pt" height="1081.000000pt" viewBox="0 0 1081.000000 1081.000000"
 preserveAspectRatio="xMidYMid meet">

<g transform="translate(0.000000,1081.000000) scale(0.100000,-0.100000)"
fill="#000000" stroke="none">
<path d="M3725 10659 c-764 -70 -1358 -271 -1930 -652 -1002 -667 -1668 -1767
-1785 -2947 -13 -138 -8 -630 8 -710 6 -30 16 -102 22 -160 63 -602 320 -1269
690 -1790 218 -308 509 -618 735 -785 39 -28 120 -88 180 -133 141 -104 217
-181 252 -257 26 -58 28 -67 31 -250 l4 -190 -59 -29 c-394 -192 -552 -642
-356 -1017 72 -139 209 -272 333 -324 36 -15 69 -30 73 -35 5 -4 21 -86 37
-181 37 -228 69 -318 164 -464 170 -260 460 -451 789 -519 249 -52 1126 -69
1772 -35 220 11 296 21 421 54 477 128 819 508 884 986 6 46 13 98 16 114 3
26 14 35 77 67 236 122 399 365 423 632 7 81 -7 190 -37 280 -54 163 -195 325
-356 409 -182 95 -84 87 -1115 87 l-908 0 0 325 0 325 190 0 191 0 60 30 c104
53 137 132 159 380 14 159 29 247 43 258 7 5 111 48 232 97 l219 88 41 -22
c22 -12 94 -66 160 -121 248 -207 352 -217 550 -53 98 81 370 348 482 473 204
229 209 334 24 554 -96 114 -171 214 -171 228 0 16 170 460 181 474 13 16 47
21 209 34 266 22 351 51 409 139 l36 56 3 198 3 197 1183 0 1183 0 22 -59 c31
-86 108 -197 184 -267 121 -111 260 -166 417 -167 175 0 321 61 445 187 129
130 180 258 179 446 -2 165 -57 304 -169 429 -95 105 -259 180 -415 188 -302
16 -572 -173 -641 -449 l-11 -48 -1189 0 -1189 0 0 201 c0 231 -2 239 -92 309
-61 49 -87 56 -268 75 -227 24 -294 35 -307 48 -6 7 -52 113 -101 237 l-90
225 36 50 c19 28 72 92 116 143 194 222 216 333 100 493 -61 84 -573 594 -644
642 -72 48 -151 66 -218 49 -67 -18 -130 -59 -263 -170 -64 -53 -134 -107
-155 -118 l-39 -22 -230 90 c-126 50 -231 92 -233 93 -2 2 -10 70 -18 151 -29
288 -77 441 -153 492 -33 21 -43 22 -247 22 l-214 0 0 418 c0 311 -3 423 -13
441 -31 61 -140 80 -352 60z m105 -1369 l0 -1120 -34 0 c-116 0 -357 -66 -511
-140 -716 -345 -1066 -1171 -815 -1922 48 -143 130 -307 213 -425 80 -113 257
-291 372 -372 187 -132 431 -230 665 -268 l110 -18 0 -1107 0 -1108 -819 0
-819 0 -4 218 -3 217 -32 65 c-66 133 -194 258 -518 505 -430 328 -753 727
-1005 1240 -183 374 -294 752 -346 1185 -22 178 -25 617 -6 790 54 481 173
898 377 1315 453 929 1263 1615 2244 1901 201 58 398 97 651 128 231 28 262
32 273 35 4 0 7 -503 7 -1119z m594 158 c3 -24 10 -106 16 -183 13 -163 34
-289 56 -344 18 -44 40 -57 179 -96 50 -14 167 -61 260 -104 220 -103 241
-111 280 -111 40 0 116 49 240 156 108 93 198 161 226 169 16 5 78 -50 329
-296 171 -166 310 -307 310 -313 0 -6 -50 -69 -110 -141 -195 -230 -250 -323
-231 -392 6 -19 41 -92 79 -161 49 -89 81 -163 107 -247 67 -223 73 -235 119
-256 55 -24 129 -36 334 -54 95 -9 184 -20 198 -25 24 -9 24 -12 24 -127 0
-65 3 -262 7 -439 l6 -321 -24 -6 c-14 -4 -101 -14 -195 -22 -252 -24 -348
-46 -381 -87 -6 -7 -64 -146 -128 -308 -64 -162 -125 -315 -135 -341 l-18 -45
160 -220 c88 -120 167 -229 176 -242 15 -23 12 -27 -289 -328 -167 -167 -311
-304 -319 -304 -26 0 -100 52 -200 141 -247 221 -279 229 -478 123 -59 -31
-178 -80 -264 -110 -228 -79 -246 -88 -263 -128 -24 -57 -34 -118 -50 -293
-19 -217 -25 -254 -39 -258 -6 -2 -75 -6 -152 -10 l-142 -6 -6 368 c-3 202 -9
497 -12 656 l-6 287 35 0 c63 0 210 30 325 66 232 72 459 212 642 394 221 222
361 479 431 792 26 118 37 408 20 530 -75 525 -400 977 -871 1209 -122 60
-295 116 -423 135 -56 9 -113 21 -127 28 l-25 12 -3 647 -2 647 164 0 165 0 5
-42z m-214 -1533 c136 -21 230 -49 346 -104 233 -111 396 -260 528 -481 204
-344 251 -805 121 -1197 -154 -461 -515 -765 -1000 -839 -124 -19 -444 -13
-545 10 -250 57 -445 161 -610 326 -401 399 -506 1089 -245 1612 184 370 510
607 925 673 116 18 363 18 480 0z m5974 -950 c98 -16 204 -105 254 -213 24
-50 27 -69 27 -157 0 -81 -4 -109 -21 -146 -60 -130 -206 -219 -357 -219 -116
0 -210 51 -277 152 -55 83 -74 147 -74 248 0 96 25 167 83 233 42 47 139 95
216 106 60 9 74 8 149 -4z m-4328 -4416 c267 -49 448 -337 379 -604 -35 -131
-126 -240 -253 -302 l-77 -38 -1931 0 -1931 0 -85 42 c-262 130 -346 452 -182
698 47 72 102 118 193 163 l75 37 1435 5 c790 3 1634 6 1877 8 283 1 462 -2
500 -9z m-120 -1280 c-38 -385 -332 -703 -738 -799 -121 -28 -320 -40 -793
-47 -421 -6 -977 8 -1140 28 -247 31 -490 147 -633 304 -131 143 -206 314
-219 498 l-6 87 1768 0 1768 0 -7 -71z"/>
<path d="M9229 10179 c-80 -9 -192 -47 -267 -91 -32 -18 -91 -67 -134 -109
-120 -120 -178 -258 -178 -423 0 -88 28 -203 70 -285 18 -36 69 -104 125 -165
52 -57 95 -107 95 -112 0 -5 -74 -211 -163 -459 l-163 -450 -195 -6 c-106 -4
-457 -7 -779 -8 -387 -1 -598 -5 -624 -12 -82 -23 -126 -106 -93 -175 32 -66
18 -64 518 -71 729 -11 1207 -9 1257 5 23 7 57 26 76 42 69 61 153 262 275
660 45 146 92 294 105 330 l24 65 113 6 c191 11 331 76 458 215 107 117 161
257 161 417 0 179 -58 315 -190 447 -144 146 -296 201 -491 179z m207 -288
c77 -36 134 -92 176 -173 31 -60 33 -68 33 -173 0 -97 -3 -116 -24 -160 -69
-139 -259 -234 -411 -205 -116 22 -197 89 -253 208 -27 57 -32 81 -35 164 -3
70 0 109 12 145 64 191 307 285 502 194z"/>
<path d="M7220 5419 c-169 -11 -241 -29 -283 -70 -25 -26 -29 -35 -24 -69 3
-22 14 -55 26 -73 l21 -34 432 -7 c238 -3 609 -9 825 -13 l391 -6 162 -474
c89 -260 163 -479 164 -487 0 -7 -21 -31 -48 -54 -70 -58 -132 -137 -171 -217
-169 -350 28 -759 415 -862 80 -21 252 -23 330 -4 101 25 178 68 254 145 278
276 244 764 -67 976 -91 62 -166 87 -317 106 -68 8 -130 20 -137 25 -18 16
-65 142 -160 434 -193 591 -231 647 -444 676 -107 14 -1172 20 -1369 8z m2224
-1433 c286 -140 278 -533 -12 -669 -57 -27 -78 -31 -148 -31 -75 0 -89 3 -157
37 -86 43 -141 98 -184 186 -24 49 -28 68 -28 146 0 78 4 98 29 152 34 75 112
153 188 189 47 22 64 24 153 22 87 -3 108 -7 159 -32z"/>
</g>
</svg>
