<svg width="100" height="98" viewBox="0 0 100 98" fill="none" xmlns="http://www.w3.org/2000/svg">
<path d="M34.7196 0.105881C27.5937 0.758781 22.0534 2.63353 16.7183 6.18716C7.37251 12.4083 1.16065 22.6682 0.0693755 33.6742C-0.0518771 34.9613 -0.00524148 39.5503 0.143992 40.2964C0.199955 40.5762 0.293226 41.2478 0.349189 41.7888C0.936797 47.4037 3.33387 53.6249 6.7849 58.4843C8.81821 61.3571 11.5324 64.2485 13.6403 65.8061C14.0041 66.0673 14.7596 66.6269 15.3192 67.0466C16.6343 68.0166 17.3432 68.7348 17.6696 69.4437C17.9122 69.9847 17.9308 70.0686 17.9588 71.7755L17.9961 73.5476L17.4458 73.8181C13.7709 75.6089 12.2972 79.8061 14.1253 83.3038C14.7969 84.6002 16.0747 85.8408 17.2313 86.3258C17.567 86.4657 17.8748 86.6056 17.9122 86.6522C17.9588 86.6895 18.108 87.4543 18.2573 88.3404C18.6024 90.467 18.9008 91.3064 19.7869 92.6682C21.3725 95.0933 24.0774 96.8747 27.146 97.509C29.4684 97.994 37.6483 98.1525 43.6736 97.8354C45.7256 97.7328 46.4345 97.6396 47.6004 97.3318C52.0494 96.1379 55.2393 92.5936 55.8455 88.1352C55.9015 87.7062 55.9668 87.2212 55.9948 87.0719C56.0228 86.8294 56.1253 86.7455 56.713 86.447C58.9142 85.3091 60.4345 83.0426 60.6583 80.5523C60.7236 79.7968 60.593 78.7801 60.3132 77.9407C59.8096 76.4204 58.4944 74.9094 56.9928 74.1259C55.2952 73.2398 56.2093 73.3144 46.593 73.3144H38.124V70.2831V67.2518H39.8962H41.6776L42.2373 66.972C43.2073 66.4777 43.5151 65.7408 43.7203 63.4277C43.8509 61.9447 43.9908 61.1239 44.1213 61.0213C44.1866 60.9747 45.1567 60.5736 46.2852 60.1166L48.3279 59.2958L48.7103 59.501C48.9155 59.6129 49.587 60.1166 50.2026 60.6296C52.5158 62.5603 53.4858 62.6535 55.3325 61.1239C56.2466 60.3684 58.7836 57.8781 59.8282 56.7122C61.7309 54.5763 61.7776 53.5969 60.0521 51.5449C59.1567 50.4816 58.4571 49.5489 58.4571 49.4184C58.4571 49.2691 60.0427 45.1279 60.1453 44.9973C60.2666 44.8481 60.5837 44.8014 62.0947 44.6802C64.5757 44.475 65.3685 44.2045 65.9095 43.3837L66.2453 42.8614L66.2733 41.0146L66.3012 39.1772H77.3352H88.3692L88.5744 39.7275C88.8635 40.5296 89.5817 41.5649 90.2906 42.2178C91.4192 43.2531 92.7156 43.7661 94.18 43.7755C95.8122 43.7755 97.174 43.2065 98.3306 42.0313C99.5338 40.8188 100.009 39.6249 100 37.8714C99.9815 36.3324 99.4685 35.0359 98.4238 33.87C97.5378 32.8907 96.0081 32.1912 94.5531 32.1166C91.7363 31.9673 89.218 33.7301 88.5744 36.3044L88.4718 36.7521H77.3819H66.2919V34.8774C66.2919 32.7228 66.2733 32.6482 65.4338 31.9953C64.8649 31.5383 64.6224 31.473 62.9341 31.2958C60.8169 31.0719 60.192 30.9693 60.0707 30.8481C60.0148 30.7828 59.5857 29.7941 59.1287 28.6375L58.2892 26.5389L58.625 26.0726C58.8022 25.8114 59.2966 25.2145 59.707 24.7388C61.5164 22.6682 61.7216 21.6329 60.6397 20.1405C60.0707 19.3571 55.2952 14.6002 54.633 14.1525C53.9615 13.7048 53.2246 13.5369 52.5997 13.6955C51.9748 13.8634 51.3872 14.2458 50.1467 15.2811C49.5497 15.7754 48.8968 16.2791 48.701 16.3817L48.3372 16.5869L46.192 15.7475C45.0168 15.2811 44.0374 14.8894 44.0187 14.88C44.0001 14.8614 43.9255 14.2271 43.8509 13.4716C43.5804 10.7854 43.1327 9.35838 42.4238 8.8827C42.116 8.68683 42.0227 8.67751 40.12 8.67751H38.124V4.77877C38.124 1.87804 38.096 0.833397 38.0028 0.665512C37.7136 0.0965576 36.697 -0.080658 34.7196 0.105881ZM35.699 12.8747V23.3211H35.3818C34.2999 23.3211 32.0521 23.9367 30.6157 24.6269C23.9375 27.8447 20.673 35.5489 23.0141 42.5536C23.4618 43.8874 24.2266 45.417 25.0008 46.5176C25.7469 47.5716 27.3978 49.2318 28.4704 49.9873C30.2146 51.2185 32.4904 52.1325 34.673 52.487L35.699 52.6549V62.98V73.3144H28.0601H20.4211L20.3838 71.2811L20.3559 69.2571L20.0574 68.6509C19.4418 67.4104 18.2479 66.2445 15.2259 63.9407C11.2153 60.8814 8.20262 57.1599 5.85219 52.3751C4.14533 48.8867 3.11002 45.3611 2.62501 41.3224C2.41981 39.6622 2.39183 35.5676 2.56904 33.954C3.07271 29.4677 4.18263 25.5782 6.08537 21.6888C10.3106 13.0239 17.8655 6.62553 27.0154 3.95798C28.8902 3.41701 30.7276 3.05325 33.0874 2.76411C35.2419 2.50295 35.5311 2.46564 35.6337 2.43766C35.671 2.43766 35.699 7.1292 35.699 12.8747ZM41.2393 11.401C41.2673 11.6249 41.3325 12.3897 41.3885 13.1079C41.5098 14.6282 41.7056 15.8034 41.9108 16.3164C42.0787 16.7268 42.2839 16.8481 43.5804 17.2118C44.0467 17.3424 45.138 17.7808 46.0054 18.1818C48.0574 19.1425 48.2533 19.2171 48.617 19.2171C48.9901 19.2171 49.699 18.7601 50.8555 17.7621C51.8629 16.8947 52.7023 16.2605 52.9635 16.1858C53.1127 16.1392 53.691 16.6522 56.0321 18.9467C57.627 20.495 58.9235 21.8101 58.9235 21.8661C58.9235 21.922 58.4571 22.5096 57.8975 23.1812C56.0787 25.3264 55.5657 26.1938 55.7429 26.8374C55.7989 27.0146 56.1253 27.6955 56.4798 28.3391C56.9368 29.1692 57.2353 29.8594 57.4778 30.6429C58.1027 32.7228 58.1587 32.8347 58.5877 33.0306C59.1007 33.2545 59.7909 33.3664 61.703 33.5343C62.589 33.6182 63.4192 33.7208 63.5497 33.7674C63.7736 33.8514 63.7736 33.8794 63.7736 34.952C63.7736 35.5583 63.8016 37.3957 63.8389 39.0466L63.8948 42.0406L63.671 42.0966C63.5404 42.1339 62.7289 42.2271 61.8522 42.3018C59.5018 42.5256 58.6064 42.7308 58.2986 43.1132C58.2426 43.1785 57.7016 44.475 57.1047 45.986C56.5078 47.497 55.9388 48.924 55.8455 49.1665L55.6776 49.5862L57.17 51.6382C57.9908 52.7575 58.7276 53.7741 58.8116 53.8954C58.9515 54.1099 58.9235 54.1472 56.116 56.9547C54.5584 58.5123 53.2153 59.7901 53.1407 59.7901C52.8982 59.7901 52.208 59.3051 51.2752 58.475C48.9715 56.4137 48.673 56.3391 46.8169 57.3278C46.2666 57.6169 45.1567 58.0739 44.3545 58.3537C42.2279 59.0906 42.0601 59.1745 41.9015 59.5476C41.6776 60.0793 41.5844 60.6482 41.4351 62.2805C41.2579 64.3044 41.202 64.6495 41.0714 64.6868C41.0154 64.7055 40.3718 64.7428 39.6537 64.7801L38.3292 64.8361L38.2732 61.4037C38.2453 59.5196 38.1893 56.7681 38.1613 55.2851L38.1054 52.6082H38.4318C39.0194 52.6082 40.3905 52.3284 41.4631 51.9926C43.627 51.3211 45.7443 50.0153 47.4511 48.3178C49.5124 46.2471 50.8182 43.8501 51.4711 40.9307C51.7136 39.8301 51.8162 37.1252 51.6577 35.9873C50.9581 31.0906 47.9268 26.8747 43.5337 24.7108C42.3958 24.1512 40.7822 23.6289 39.5884 23.4517C39.0661 23.3677 38.5344 23.2558 38.4038 23.1905L38.1707 23.0786L38.1427 17.0439L38.124 11.0093H39.6537H41.1926L41.2393 11.401ZM39.2433 25.6995C40.5118 25.8954 41.3885 26.1565 42.4704 26.6695C44.6437 27.7048 46.164 29.0946 47.3952 31.1559C49.2979 34.3644 49.7363 38.6642 48.5237 42.3204C47.0874 46.6202 43.7203 49.4557 39.1966 50.1459C38.0401 50.3231 35.0554 50.2671 34.1134 50.0526C31.7816 49.521 29.9628 48.5509 28.4238 47.012C24.6836 43.2904 23.7043 36.8547 26.1387 31.9766C27.8549 28.5256 30.8955 26.3151 34.7663 25.6995C35.8482 25.5316 38.152 25.5316 39.2433 25.6995ZM94.9635 34.5603C95.8775 34.7095 96.8662 35.5396 97.3326 36.5469C97.5564 37.0133 97.5844 37.1905 97.5844 38.0113C97.5844 38.7668 97.5471 39.0279 97.3885 39.3731C96.8289 40.5856 95.4671 41.4157 94.0587 41.4157C92.9768 41.4157 92.1 40.94 91.4751 39.998C90.9621 39.2238 90.7849 38.6269 90.7849 37.6848C90.7849 36.7894 91.0181 36.1272 91.5591 35.5116C91.9508 35.0732 92.8555 34.6255 93.5737 34.5229C94.1334 34.439 94.2639 34.4483 94.9635 34.5603ZM54.5957 75.7488C57.086 76.2058 58.7743 78.892 58.1307 81.3824C57.8042 82.6042 56.9555 83.6209 55.7709 84.1992L55.0527 84.5536H37.0421H19.0314L18.2386 84.1619C15.7949 82.9493 15.0114 79.946 16.5411 77.6515C16.9794 76.98 17.4924 76.5509 18.3412 76.1312L19.0407 75.7861L32.4251 75.7395C39.7936 75.7115 47.6657 75.6835 49.9321 75.6649C52.5717 75.6555 54.2413 75.6835 54.5957 75.7488ZM53.4764 87.6875C53.122 91.2785 50.3798 94.2445 46.593 95.1399C45.4645 95.401 43.6084 95.513 39.1966 95.5783C35.2699 95.6342 30.084 95.5036 28.5637 95.3171C26.2599 95.028 23.9934 93.946 22.6597 92.4817C21.4378 91.1479 20.7383 89.5529 20.617 87.8368L20.5611 87.0253H37.0514H53.5417L53.4764 87.6875Z" fill="#0B72D1"/>
<path d="M86.0561 4.583C85.31 4.66694 84.2653 5.02138 83.5658 5.43177C83.2673 5.59966 82.717 6.05669 82.3159 6.44843C81.1967 7.56768 80.6557 8.85482 80.6557 10.3938C80.6557 11.2146 80.9169 12.2872 81.3086 13.052C81.4765 13.3878 81.9522 14.022 82.4745 14.591C82.9595 15.1226 83.3606 15.589 83.3606 15.6356C83.3606 15.6823 82.6704 17.6037 81.8403 19.9168L80.3199 24.114L78.5012 24.1699C77.5125 24.2073 74.2387 24.2352 71.2353 24.2446C67.6257 24.2539 65.6577 24.2912 65.4152 24.3565C64.6504 24.571 64.24 25.3452 64.5478 25.9887C64.8463 26.6043 64.7157 26.5857 69.3792 26.651C76.1787 26.7536 80.6371 26.7349 81.1034 26.6043C81.3179 26.539 81.6351 26.3618 81.8123 26.2126C82.4559 25.6436 83.2393 23.7689 84.3772 20.0567C84.797 18.6949 85.2353 17.3145 85.3566 16.9787L85.5804 16.3725L86.6344 16.3165C88.4159 16.2139 89.7217 15.6077 90.9062 14.3112C91.9042 13.2199 92.4079 11.9141 92.4079 10.4218C92.4079 8.75222 91.8669 7.48373 90.6357 6.25256C89.2926 4.8908 87.8749 4.3778 86.0561 4.583ZM87.9868 7.26921C88.705 7.60499 89.2367 8.12731 89.6284 8.8828C89.9175 9.44243 89.9362 9.51705 89.9362 10.4964C89.9362 11.4011 89.9082 11.5783 89.7124 11.9887C89.0688 13.2852 87.2966 14.1713 85.8789 13.9008C84.797 13.6956 84.0415 13.0707 83.5191 11.9608C83.2673 11.4291 83.2207 11.2053 83.1927 10.4311C83.1647 9.77821 83.1927 9.41445 83.3046 9.07867C83.9016 7.29719 86.168 6.42044 87.9868 7.26921Z" fill="white"/>
<path d="M67.3178 48.98C65.7416 49.0826 65.07 49.2505 64.6783 49.6329C64.4451 49.8754 64.4078 49.9593 64.4544 50.2764C64.4824 50.4816 64.585 50.7894 64.6969 50.9573L64.8928 51.2744L68.9221 51.3397C71.142 51.3677 74.6023 51.4237 76.617 51.461L80.2639 51.5169L81.7749 55.938C82.605 58.363 83.2952 60.4057 83.3045 60.4803C83.3045 60.5456 83.1086 60.7694 82.8568 60.984C82.2039 61.5249 81.6256 62.2618 81.2619 63.008C79.6856 66.2724 81.523 70.0872 85.1326 71.0479C85.8788 71.2438 87.4831 71.2625 88.2106 71.0852C89.1526 70.8521 89.8708 70.451 90.5797 69.7328C93.1726 67.1585 92.8555 62.6069 89.9548 60.6295C89.106 60.0513 88.4065 59.8181 86.9981 59.6409C86.3638 59.5662 85.7855 59.4543 85.7202 59.4077C85.5524 59.2585 85.114 58.0832 84.2279 55.3597C82.4278 49.8474 82.0733 49.3251 80.0867 49.0546C79.0887 48.924 69.1553 48.868 67.3178 48.98ZM88.0613 62.3457C90.7289 63.6515 90.6543 67.3171 87.9494 68.5856C87.4178 68.8374 87.2219 68.8747 86.569 68.8747C85.8695 68.8747 85.7389 68.8467 85.1047 68.5296C84.3025 68.1285 83.7895 67.6155 83.3885 66.7948C83.1646 66.3377 83.1273 66.1605 83.1273 65.433C83.1273 64.7055 83.1646 64.5189 83.3978 64.0153C83.7149 63.3157 84.4424 62.5882 85.1513 62.2525C85.5897 62.0473 85.7482 62.0286 86.5783 62.0473C87.3898 62.0752 87.5857 62.1125 88.0613 62.3457Z" fill="white"/>
</svg>
