<?xml version="1.0" standalone="no"?>
<!DOCTYPE svg PUBLIC "-//W3C//DTD SVG 20010904//EN"
 "http://www.w3.org/TR/2001/REC-SVG-20010904/DTD/svg10.dtd">
<svg version="1.0" xmlns="http://www.w3.org/2000/svg"
 width="1081.000000pt" height="1081.000000pt" viewBox="0 0 1081.000000 1081.000000"
 preserveAspectRatio="xMidYMid meet">

<g transform="translate(0.000000,1081.000000) scale(0.100000,-0.100000)"
fill="#000000" stroke="none">
<path d="M5142 10800 c-53 -12 -90 -56 -115 -135 -19 -60 -22 -92 -21 -220 0
-163 11 -218 50 -264 71 -85 222 -74 279 21 18 29 20 54 23 205 4 190 -7 294
-36 333 -38 50 -114 76 -180 60z"/>
<path d="M3777 10236 c-87 -32 -125 -106 -105 -202 9 -42 25 -62 141 -180 177
-183 264 -225 357 -175 52 27 80 83 80 158 0 52 -4 67 -27 95 -59 73 -260 271
-295 288 -51 27 -106 33 -151 16z"/>
<path d="M6475 10233 c-93 -50 -294 -247 -328 -322 -36 -82 -14 -172 55 -224
37 -28 116 -34 160 -13 44 21 323 303 338 340 28 74 -3 169 -69 213 -41 28
-111 30 -156 6z"/>
<path d="M5050 9913 c-508 -54 -913 -432 -1026 -955 -23 -104 -25 -351 -5
-453 38 -193 95 -315 272 -587 218 -334 259 -438 259 -657 1 -275 47 -406 195
-557 117 -118 258 -174 435 -174 208 0 379 79 508 233 100 120 143 264 161
538 16 238 50 326 248 630 134 207 175 285 218 411 141 424 44 876 -259 1195
-117 123 -195 181 -341 253 -208 103 -444 147 -665 123z m318 -359 c303 -62
544 -289 644 -604 33 -106 33 -299 0 -415 -32 -111 -110 -269 -241 -488 -102
-172 -196 -346 -221 -411 -9 -25 -12 -26 -100 -26 l-90 0 0 368 0 368 48 37
c27 20 71 61 99 90 139 147 132 384 -16 540 -112 118 -266 163 -410 118 -161
-50 -269 -170 -303 -335 -13 -66 -1 -155 31 -228 28 -65 96 -149 151 -188 l50
-35 -3 -370 -2 -370 -35 -3 c-92 -9 -154 43 -210 179 -19 46 -87 167 -151 270
-145 231 -170 275 -208 366 -49 120 -64 209 -58 342 15 326 191 596 477 730
80 37 167 64 235 74 76 10 242 6 313 -9z m-118 -781 c26 -33 20 -68 -16 -100
-49 -45 -105 -17 -107 53 -2 69 80 101 123 47z m250 -1557 c0 -70 -28 -161
-68 -218 -82 -119 -249 -161 -378 -95 -100 51 -155 147 -162 285 l-5 82 307 0
306 0 0 -54z"/>
<path d="M3282 8901 c-85 -9 -117 -28 -150 -92 -29 -54 -26 -135 4 -176 52
-70 97 -81 329 -82 201 0 247 12 298 80 61 83 14 233 -81 258 -50 13 -310 21
-400 12z"/>
<path d="M6752 8901 c-85 -9 -117 -28 -150 -92 -43 -82 -20 -173 57 -226 39
-27 169 -38 351 -31 144 6 185 19 225 72 71 93 28 236 -80 265 -52 14 -310 22
-403 12z"/>
<path d="M2948 8276 c-70 -25 -314 -199 -527 -375 -122 -101 -426 -410 -556
-566 -331 -396 -565 -786 -565 -942 0 -93 72 -165 165 -165 96 0 134 43 278
314 172 323 350 561 632 843 211 212 401 369 704 581 94 66 107 89 99 175 -6
59 -39 106 -92 130 -48 22 -87 23 -138 5z"/>
<path d="M7310 8279 c-67 -15 -131 -119 -115 -188 16 -69 28 -83 149 -164 67
-44 164 -113 216 -152 383 -291 798 -745 991 -1085 101 -177 156 -230 241
-230 89 0 158 65 158 149 -1 104 -71 240 -247 481 -172 235 -265 343 -482 561
-331 330 -707 612 -846 632 -16 2 -46 1 -65 -4z"/>
<path d="M9174 6131 c-62 -4 -99 -12 -118 -24 -15 -10 -52 -56 -82 -103 -87
-135 -176 -184 -308 -168 -39 4 -105 8 -147 8 -76 1 -78 0 -149 -48 -87 -60
-215 -179 -256 -237 l-29 -43 0 -180 0 -181 -33 -67 c-30 -62 -39 -71 -102
-108 -130 -76 -144 -116 -145 -400 0 -221 5 -239 93 -296 80 -52 129 -101 160
-159 26 -49 27 -54 27 -231 l0 -181 29 -41 c39 -57 271 -271 312 -288 40 -17
86 -18 134 -4 105 32 119 31 230 -11 58 -22 113 -48 123 -58 10 -10 39 -53 65
-96 72 -120 74 -121 352 -118 l225 3 30 33 c180 201 190 210 249 238 72 34
147 38 233 13 63 -18 122 -15 175 10 43 21 294 274 308 311 15 38 12 123 -5
179 -23 75 -19 121 17 200 55 121 70 140 143 177 110 55 105 39 105 348 l0
267 -27 26 c-16 14 -53 41 -84 61 -68 42 -97 79 -138 174 -36 83 -38 120 -11
221 17 63 17 77 6 116 -36 119 -249 334 -367 370 -38 12 -59 12 -135 0 -128
-19 -171 -17 -230 10 -68 31 -117 76 -158 144 -41 68 -70 96 -116 115 -42 17
-246 27 -376 18z m190 -345 c22 -9 48 -35 75 -74 51 -75 75 -92 204 -146 218
-92 295 -109 380 -85 52 14 91 4 133 -37 l37 -34 -8 -119 -7 -119 37 -94 c21
-51 59 -138 85 -193 46 -100 52 -107 149 -178 50 -36 64 -70 55 -134 -5 -37
-12 -46 -49 -68 -100 -58 -136 -109 -221 -311 -52 -124 -61 -179 -45 -279 13
-87 -4 -130 -62 -159 -35 -17 -47 -17 -125 -7 -83 10 -88 10 -176 -20 -118
-41 -289 -116 -321 -141 -14 -11 -41 -44 -60 -73 -37 -59 -51 -69 -108 -79
-68 -12 -103 7 -153 86 -43 66 -49 72 -129 109 -46 22 -146 60 -222 85 -130
44 -140 46 -186 35 -94 -22 -157 -8 -191 41 -21 29 -20 67 1 149 l17 67 -35
92 c-19 51 -63 151 -99 224 -60 122 -68 132 -109 154 -68 34 -79 48 -86 110
-9 77 4 105 67 146 91 58 106 82 203 324 l57 143 -16 71 c-21 92 -20 118 7
149 47 56 65 61 189 54 111 -7 115 -6 190 24 91 36 251 115 291 143 15 11 46
49 68 83 40 63 47 68 112 74 10 0 33 -5 51 -13z"/>
<path d="M9136 5435 c-182 -38 -300 -99 -416 -215 -47 -47 -100 -110 -118
-142 -188 -320 -129 -794 133 -1076 223 -240 525 -302 873 -181 422 148 635
571 512 1019 -78 283 -300 508 -575 585 -83 23 -318 29 -409 10z m333 -344
c83 -26 137 -60 198 -123 258 -273 153 -736 -187 -832 -293 -82 -562 62 -635
339 -19 73 -19 213 -1 281 45 170 192 311 357 343 80 16 203 12 268 -8z"/>
<path d="M920 5961 c-89 -29 -141 -60 -200 -120 -102 -105 -150 -236 -150
-409 l0 -94 -189 7 c-229 9 -274 1 -338 -58 l-43 -40 0 -951 0 -952 42 -42
c55 -53 101 -69 241 -82 175 -17 1084 -24 1355 -11 269 14 330 22 392 54 74
37 88 78 96 272 3 88 1 239 -4 336 -12 207 -20 230 -90 262 -41 18 -73 22
-247 27 -219 6 -259 16 -286 67 -18 34 -15 104 6 136 33 51 73 61 285 67 223
7 274 20 305 81 38 73 46 639 10 724 -43 105 -92 120 -357 110 l-198 -7 0 94
c-1 266 -129 460 -348 528 -82 25 -205 26 -282 1z m199 -337 c31 -12 45 -26
63 -62 21 -44 23 -59 23 -237 1 -238 5 -252 97 -295 l63 -30 208 0 207 0 0
-112 0 -113 -113 0 c-119 -1 -173 -13 -271 -62 -184 -92 -285 -329 -231 -538
24 -90 52 -141 116 -210 100 -106 246 -160 417 -153 l82 3 0 -122 0 -123 -720
0 -720 0 0 715 0 715 23 1 c12 1 108 1 212 0 181 -2 192 -1 235 21 88 45 110
118 110 364 0 171 11 207 70 236 43 22 78 23 129 2z"/>
<path d="M4852 5889 c-140 -15 -218 -36 -320 -84 -263 -125 -427 -332 -509
-644 -22 -81 -26 -125 -30 -284 l-5 -188 -47 -31 c-95 -65 -140 -109 -168
-166 -28 -57 -28 -58 -28 -262 0 -233 10 -295 58 -367 44 -66 116 -107 236
-133 53 -12 104 -29 113 -39 9 -9 35 -62 58 -119 61 -156 82 -192 163 -278 94
-102 107 -121 107 -164 0 -74 -129 -155 -302 -190 -51 -10 -174 -26 -273 -35
-275 -25 -390 -52 -535 -125 -321 -161 -516 -441 -589 -845 -36 -204 -44 -373
-35 -740 4 -187 8 -464 9 -615 1 -272 1 -275 25 -318 13 -24 39 -52 58 -64
l34 -21 2327 7 c2195 7 2327 8 2350 25 70 50 76 83 92 486 18 454 -3 1093 -40
1280 -103 506 -530 889 -1044 935 -62 5 -168 14 -236 20 -261 24 -413 93 -436
201 -6 28 -4 36 15 49 46 30 103 97 172 200 74 110 109 178 138 270 l18 55 48
3 c86 5 169 39 228 93 66 60 96 110 127 209 20 64 24 95 23 205 -2 223 -54
336 -193 415 -36 20 -63 43 -66 55 -2 11 -9 85 -15 164 -18 239 -66 352 -236
546 -108 123 -132 156 -192 257 -60 100 -102 140 -187 180 -114 53 -170 60
-515 63 -173 2 -353 -1 -398 -6z m732 -348 c55 -18 88 -55 117 -130 24 -65 55
-102 142 -174 86 -70 168 -219 184 -334 l6 -46 -72 6 c-139 12 -255 82 -342
209 -67 98 -96 125 -146 134 -49 9 -84 -4 -350 -138 -309 -155 -482 -208 -685
-208 l-98 0 0 83 c0 173 59 316 180 438 114 115 200 149 445 173 94 9 581 -1
619 -13z m-144 -787 c101 -103 253 -189 397 -223 l78 -18 9 -164 c10 -198 -4
-438 -34 -554 -64 -256 -237 -434 -500 -516 -108 -34 -302 -34 -410 0 -128 39
-206 87 -300 181 -68 67 -94 103 -128 170 -77 156 -92 272 -84 643 l5 247 46
0 c159 0 448 86 721 214 74 35 140 64 145 65 6 1 31 -20 55 -45z m-1320 -420
c15 -39 12 -199 -4 -239 -8 -19 -17 -35 -20 -35 -4 0 -6 68 -6 150 0 148 8
182 30 124z m2180 0 c13 -33 13 -179 0 -226 -22 -77 -30 -50 -30 101 0 149 8
183 30 125z m-1585 -1553 c40 -25 185 -150 185 -159 -1 -8 -84 -75 -100 -80
-5 -2 -39 55 -75 127 -38 77 -60 131 -53 131 7 0 27 -8 43 -19z m944 -118
c-27 -70 -49 -129 -49 -130 0 -7 -131 83 -131 91 -1 8 210 165 223 166 3 0
-16 -57 -43 -127z m-1274 -85 c14 -29 49 -110 78 -179 104 -244 183 -322 302
-297 22 5 57 20 77 33 21 14 39 25 42 25 2 0 11 -11 20 -25 15 -23 8 -61 -149
-802 -91 -428 -168 -786 -171 -795 -5 -17 -29 -18 -325 -18 l-319 0 0 373 c0
371 0 374 -23 417 -61 115 -240 121 -314 11 -23 -34 -23 -35 -23 -417 l0 -384
-245 0 -246 0 4 682 c3 773 -1 723 87 903 87 177 209 300 375 380 118 57 191
72 442 90 124 9 237 23 278 34 39 10 73 19 78 20 4 0 18 -23 32 -51z m1745 27
c36 -8 148 -21 250 -30 278 -24 386 -51 515 -127 38 -23 98 -69 132 -103 76
-76 173 -224 216 -330 l32 -80 3 -707 3 -708 -241 0 -240 0 0 374 c0 206 -4
385 -9 398 -12 32 -70 88 -108 104 -47 20 -83 17 -142 -12 -94 -47 -91 -31
-91 -476 l0 -388 -335 0 c-184 0 -335 1 -335 3 0 4 -309 1551 -315 1573 -3 13
3 31 13 44 l18 22 38 -26 c61 -41 111 -51 162 -31 82 31 143 122 244 365 71
169 67 163 98 155 15 -4 56 -13 92 -20z m-806 -1518 l113 -567 -238 0 c-132 0
-239 3 -239 8 -1 15 244 1131 247 1128 2 -2 54 -258 117 -569z"/>
<path d="M1440 2892 c-19 -10 -50 -40 -67 -66 -61 -90 -50 -129 118 -411 215
-361 518 -739 672 -841 47 -30 70 -39 118 -42 59 -4 60 -4 99 37 50 52 67 109
50 166 -17 57 -39 86 -155 205 -114 116 -212 239 -338 423 -83 120 -244 382
-285 463 -36 70 -143 104 -212 66z"/>
<path d="M8745 2761 c-43 -18 -101 -93 -312 -401 -89 -129 -182 -251 -254
-330 -188 -209 -245 -296 -236 -361 16 -121 168 -179 275 -105 113 78 500 560
648 806 71 119 87 166 82 240 -5 63 -22 97 -70 133 -29 21 -102 31 -133 18z"/>
</g>
</svg>
