<?xml version="1.0" standalone="no"?>
<!DOCTYPE svg PUBLIC "-//W3C//DTD SVG 20010904//EN"
 "http://www.w3.org/TR/2001/REC-SVG-20010904/DTD/svg10.dtd">
<svg version="1.0" xmlns="http://www.w3.org/2000/svg"
 width="1081.000000pt" height="1081.000000pt" viewBox="0 0 1081.000000 1081.000000"
 preserveAspectRatio="xMidYMid meet">

<g transform="translate(0.000000,1081.000000) scale(0.100000,-0.100000)"
fill="#000000" stroke="none">
<path d="M5083 10784 c-523 -63 -1022 -272 -1433 -600 -109 -87 -357 -335
-444 -444 -342 -428 -557 -953 -605 -1479 -6 -63 -15 -119 -20 -124 -5 -5
-135 -3 -308 3 -304 12 -495 5 -588 -21 -22 -6 -56 -28 -77 -49 l-38 -38 0
-2306 0 -2306 -492 0 -493 -1 -96 -37 c-119 -48 -191 -95 -268 -177 -105 -113
-169 -275 -190 -483 -22 -217 -33 -687 -28 -1172 6 -544 19 -788 46 -925 67
-327 248 -508 575 -576 162 -33 425 -44 1101 -43 957 0 1159 19 1368 131 83
45 206 174 249 263 72 148 76 176 71 530 -3 173 0 419 6 545 30 627 35 857 22
1075 -13 241 -28 341 -62 420 -68 164 -224 337 -364 406 l-79 39 -518 3 -518
3 0 2194 0 2195 331 0 330 0 15 -37 c9 -20 22 -95 30 -166 54 -487 286 -1026
618 -1437 87 -108 266 -290 376 -382 330 -277 708 -470 1120 -572 152 -37 391
-76 473 -76 l47 0 0 -860 0 -859 -513 -3 -513 -3 -80 -39 c-65 -32 -97 -57
-179 -140 -103 -104 -148 -169 -193 -278 l-26 -63 -11 -605 c-14 -847 -13
-1546 3 -1639 58 -342 257 -537 616 -606 154 -30 411 -39 1051 -39 829 0 1067
15 1252 78 120 41 192 85 279 171 120 118 171 236 194 446 20 186 23 622 6
1065 -9 236 -16 582 -16 767 0 316 -1 342 -21 400 -61 181 -226 369 -395 450
l-69 32 -512 3 -513 3 0 859 0 860 49 0 c69 0 266 27 381 51 962 208 1774 939
2085 1874 71 213 118 436 131 624 4 55 12 92 22 104 14 16 43 17 344 17 l328
0 0 -2195 0 -2194 -517 -3 -518 -3 -77 -39 c-159 -79 -316 -263 -378 -442 -53
-152 -67 -638 -35 -1264 10 -204 15 -465 14 -700 -2 -363 -1 -377 21 -445 94
-296 316 -456 685 -494 381 -40 1597 -40 1968 0 224 24 377 87 498 208 86 86
132 165 176 308 l28 88 3 1059 c3 1166 4 1144 -59 1306 -68 178 -188 295 -384
378 l-90 37 -502 3 -503 3 0 2307 0 2308 -38 37 c-31 30 -51 40 -108 51 -115
24 -265 28 -557 16 -153 -6 -287 -8 -297 -5 -14 5 -19 21 -25 78 -64 692 -346
1295 -827 1769 -462 456 -1051 733 -1713 808 -125 14 -487 11 -622 -6z m693
-343 c263 -40 488 -109 722 -221 281 -135 480 -277 697 -494 405 -406 640
-879 726 -1461 20 -133 18 -501 -4 -646 -117 -787 -615 -1499 -1307 -1868
-800 -426 -1815 -378 -2574 123 -595 392 -980 993 -1093 1708 -22 143 -25 556
-5 693 81 535 286 990 625 1383 377 436 932 730 1497 792 52 5 111 12 130 14
90 11 461 -4 586 -23z m-2911 -7372 c69 -26 151 -99 190 -171 l30 -53 -3 -280
c-2 -154 4 -489 13 -745 18 -485 16 -1000 -5 -1133 -13 -89 -53 -169 -108
-218 -137 -120 -265 -134 -1232 -134 -848 0 -1070 14 -1191 75 -51 27 -112 82
-141 128 l-22 36 -8 990 c-5 545 -7 1059 -6 1141 l3 151 35 58 c39 66 123 138
185 160 34 12 214 15 1122 15 1071 1 1083 1 1138 -20z m3718 -13 c71 -36 140
-109 173 -181 l25 -54 3 -493 c2 -271 9 -623 16 -783 7 -168 9 -378 6 -500
-12 -373 -30 -467 -109 -552 -129 -141 -268 -158 -1272 -158 -851 0 -1044 13
-1179 81 -97 48 -154 122 -180 234 -30 123 -41 467 -28 822 6 178 17 463 23
633 8 212 9 365 2 485 -8 141 -7 186 4 230 26 103 97 186 208 243 l50 26 1100
-2 1100 -2 58 -29z m3682 4 c60 -29 144 -110 170 -165 18 -37 19 -70 21 -500
1 -253 7 -554 13 -670 13 -264 14 -843 1 -995 -16 -177 -61 -255 -187 -319
-124 -62 -331 -76 -1178 -76 -882 0 -1035 11 -1177 87 -108 57 -160 144 -178
293 -21 181 -23 551 -5 1020 9 257 15 601 14 780 l-3 320 27 55 c33 64 65 100
125 142 87 60 19 57 1212 55 l1095 -2 50 -25z"/>
<path d="M5164 9945 c-392 -58 -720 -228 -1007 -525 -163 -167 -188 -233 -114
-296 26 -22 38 -25 77 -21 38 4 50 12 80 47 244 294 553 487 919 571 111 26
402 37 522 20 471 -68 905 -370 1123 -781 147 -278 196 -535 196 -1027 l0
-281 31 -26 c64 -54 146 -25 167 60 28 111 21 539 -13 783 -27 187 -91 395
-174 559 -46 90 -162 258 -238 344 -275 310 -660 513 -1086 573 -124 18 -360
18 -483 0z"/>
<path d="M5195 9534 c-540 -95 -969 -512 -1087 -1057 -21 -96 -22 -127 -23
-532 0 -386 -2 -438 -19 -505 -26 -104 -55 -157 -136 -247 -79 -88 -115 -151
-106 -187 3 -14 18 -38 32 -55 49 -58 108 -37 215 77 88 93 146 195 183 323
41 144 49 251 41 594 -6 225 -4 336 5 405 61 472 388 840 855 961 77 20 115
23 260 24 189 0 273 -14 395 -66 94 -40 151 -51 189 -38 63 22 82 115 33 162
-52 50 -237 114 -407 142 -111 18 -323 18 -430 -1z"/>
<path d="M5230 9186 c-329 -69 -550 -265 -670 -594 -61 -169 -92 -434 -71
-626 9 -91 13 -102 41 -130 57 -58 149 -34 170 45 7 25 10 126 8 272 -3 265 3
303 74 447 62 126 160 221 299 289 136 65 233 85 383 79 344 -16 606 -248 660
-587 19 -116 35 -147 84 -162 50 -15 107 7 123 48 28 71 -13 287 -79 418 -117
232 -334 410 -593 486 -95 27 -330 35 -429 15z"/>
<path d="M6230 9182 c-41 -20 -64 -62 -55 -100 3 -15 35 -61 71 -102 167 -191
251 -371 284 -605 24 -173 33 -503 21 -768 -14 -308 -29 -440 -70 -635 -34
-155 -41 -243 -21 -267 17 -20 76 -35 110 -28 44 8 71 45 97 135 77 266 120
884 95 1363 -15 274 -49 420 -147 631 -98 211 -255 394 -337 394 -7 0 -29 -8
-48 -18z"/>
<path d="M3853 8930 c-50 -20 -94 -137 -144 -379 -39 -188 -59 -551 -42 -761
11 -132 11 -134 42 -162 44 -39 102 -39 140 0 l28 28 6 354 c6 401 15 484 73
661 47 142 51 221 15 250 -25 20 -80 24 -118 9z"/>
<path d="M5287 8715 c-185 -51 -330 -207 -373 -402 -11 -53 -14 -149 -14 -440
0 -204 -5 -417 -10 -472 -28 -272 -131 -515 -302 -713 -109 -126 -118 -140
-118 -188 0 -55 42 -100 93 -100 107 0 328 295 442 590 98 253 122 437 107
820 -20 492 6 596 165 675 49 25 70 29 139 30 73 0 88 -3 149 -35 83 -42 127
-98 151 -189 13 -53 15 -120 12 -445 -3 -347 -1 -384 14 -408 24 -36 78 -53
123 -38 67 22 65 12 68 481 l2 424 -26 71 c-63 173 -194 294 -364 339 -71 18
-192 18 -258 0z"/>
<path d="M5357 8300 c-53 -42 -62 -145 -46 -500 15 -336 1 -478 -68 -725 -36
-129 -72 -213 -146 -350 -36 -66 -69 -132 -72 -148 -16 -63 36 -117 114 -117
34 0 44 6 71 38 63 77 195 369 240 533 65 240 86 514 75 957 l-8 276 -28 28
c-34 35 -93 38 -132 8z"/>
<path d="M6164 7979 l-29 -30 -1 -287 c0 -158 -4 -316 -8 -352 -44 -383 -166
-742 -372 -1101 -47 -82 -52 -105 -30 -148 28 -53 114 -69 158 -28 47 44 177
288 247 464 150 381 224 755 225 1143 1 246 -5 298 -40 340 -22 26 -33 30 -73
30 -40 0 -52 -5 -77 -31z"/>
<path d="M4575 7603 c-56 -14 -85 -73 -111 -223 -33 -199 -112 -344 -292 -533
-68 -71 -128 -141 -133 -155 -23 -60 37 -132 110 -132 30 0 48 13 144 108 124
121 207 226 271 345 105 195 165 462 121 546 -12 24 -63 54 -84 50 -3 -1 -15
-3 -26 -6z"/>
<path d="M5760 7193 c-64 -21 -70 -32 -124 -230 -71 -264 -199 -521 -353 -715
-65 -81 -113 -166 -113 -200 0 -28 49 -77 84 -84 67 -12 131 47 265 246 212
316 394 795 351 925 -15 46 -66 73 -110 58z"/>
<path d="M6391 6564 c-60 -42 -82 -179 -37 -231 20 -23 32 -28 69 -28 51 0 79
20 107 75 38 77 29 162 -20 187 -35 18 -91 16 -119 -3z"/>
<path d="M4864 6382 c-74 -54 -125 -153 -105 -205 12 -31 57 -67 84 -67 65 0
187 106 207 180 20 72 -20 120 -101 120 -35 0 -56 -7 -85 -28z"/>
</g>
</svg>
