<?xml version="1.0" standalone="no"?>
<!DOCTYPE svg PUBLIC "-//W3C//DTD SVG 20010904//EN"
 "http://www.w3.org/TR/2001/REC-SVG-20010904/DTD/svg10.dtd">
<svg version="1.0" xmlns="http://www.w3.org/2000/svg"
 width="1081.000000pt" height="1081.000000pt" viewBox="0 0 1081.000000 1081.000000"
 preserveAspectRatio="xMidYMid meet">

<g transform="translate(0.000000,1081.000000) scale(0.100000,-0.100000)"
fill="#000000" stroke="none">
<path d="M3725 10794 c-394 -21 -496 -39 -669 -122 -148 -71 -247 -141 -361
-256 -117 -117 -184 -219 -228 -344 -30 -85 -31 -93 -35 -300 l-4 -213 -71 7
c-90 8 -335 -11 -478 -37 -556 -100 -1068 -409 -1410 -852 -259 -335 -421
-761 -460 -1207 -52 -613 183 -1261 626 -1719 301 -312 652 -520 1060 -626
198 -52 300 -66 528 -72 l207 -6 0 -603 0 -604 -170 0 -169 0 -3 306 -3 306
-34 29 c-61 51 -160 73 -208 46 -12 -7 -311 -266 -665 -575 l-643 -564 3 -74
4 -74 646 -561 c444 -386 656 -564 679 -571 52 -14 138 15 185 62 l38 38 0
296 0 296 170 0 169 0 3 -988 3 -987 28 -77 c110 -299 435 -604 739 -693 51
-14 155 -17 945 -20 489 -2 1001 -8 1138 -14 685 -28 1770 -23 2066 9 359 40
748 298 897 595 64 129 74 181 80 409 l4 209 72 -6 c93 -6 322 8 439 28 953
163 1677 859 1867 1794 62 306 56 645 -15 946 -181 764 -758 1390 -1508 1636
-225 74 -446 109 -694 109 l-163 0 0 515 0 515 170 0 170 0 0 -294 0 -294 25
-30 c36 -43 118 -75 176 -70 45 5 62 18 695 573 l649 568 3 76 3 76 -582 505
c-797 693 -720 630 -782 630 -60 0 -120 -25 -159 -65 l-28 -28 0 -298 0 -299
-170 0 -169 0 -3 1068 c-4 1187 2 1091 -72 1242 -52 106 -105 179 -206 284
-151 156 -293 252 -457 308 l-86 30 -876 3 c-482 2 -977 8 -1101 14 -218 11
-1663 22 -1805 15z m2945 -543 l-175 -170 -1120 0 c-1095 -1 -1121 0 -1152 19
-41 25 -84 68 -206 208 l-98 112 1463 0 1462 0 -174 -169z m842 129 c220 -91
299 -167 411 -397 l52 -107 3 -1023 2 -1023 -1164 0 -1164 0 -31 -25 c-16 -14
-40 -52 -53 -83 -22 -56 -23 -65 -23 -427 0 -360 1 -371 22 -410 11 -22 35
-53 53 -70 l31 -30 1165 -3 1164 -2 0 -549 0 -548 -57 -13 c-192 -42 -473
-168 -668 -298 -549 -365 -896 -914 -991 -1567 -24 -163 -24 -459 -1 -615 86
-559 349 -1042 762 -1397 246 -212 564 -385 853 -464 100 -27 102 -30 102
-164 0 -259 -70 -447 -221 -597 -84 -83 -197 -141 -326 -167 -111 -23 -307
-35 -411 -26 l-79 7 5 72 c9 147 -55 341 -148 448 -54 62 -147 123 -224 147
-35 11 -116 25 -182 32 -166 19 -696 16 -1089 -5 -215 -12 -444 -17 -700 -15
-372 2 -381 2 -437 -20 -160 -62 -266 -174 -325 -344 -22 -61 -26 -91 -27
-193 l-1 -121 -101 -6 c-126 -7 -333 7 -416 28 -157 41 -280 117 -355 219 -25
33 -71 113 -102 176 l-56 115 -3 943 -2 942 1166 0 1167 0 33 36 c64 67 69
105 69 499 l0 350 -28 57 c-16 32 -40 67 -54 78 -25 20 -36 20 -1189 20
l-1164 0 0 639 0 639 53 12 c171 41 440 156 606 259 851 528 1254 1530 1000
2489 -192 728 -747 1323 -1454 1560 -66 23 -139 46 -161 51 l-41 11 -7 78 c-8
85 5 225 29 317 49 189 177 356 337 440 67 36 198 75 248 75 32 0 133 -96 326
-310 150 -166 281 -293 350 -338 l47 -32 1248 0 1247 0 64 29 c60 26 87 51
333 310 148 155 289 297 313 316 40 31 50 34 86 29 23 -4 71 -19 108 -34z
m-5037 -1180 c327 -38 628 -154 898 -347 104 -75 293 -256 372 -358 379 -487
509 -1091 358 -1670 -219 -846 -958 -1414 -1840 -1415 -180 0 -339 19 -498 60
-749 193 -1307 840 -1396 1620 -14 129 -7 413 15 528 67 360 210 665 441 940
293 349 744 589 1205 641 108 12 340 13 445 1z m6930 -1575 c187 -158 346
-293 353 -299 10 -10 -66 -81 -355 -332 -202 -175 -371 -320 -375 -322 -4 -2
-8 77 -8 175 l0 179 -36 42 c-67 78 76 72 -1589 72 l-1495 0 0 170 0 170 1509
0 1508 0 52 54 51 55 0 182 0 182 23 -20 c12 -11 175 -150 362 -308z m-715
-2235 c836 -87 1512 -710 1682 -1550 20 -101 23 -144 23 -350 0 -206 -3 -249
-23 -350 -164 -813 -781 -1402 -1597 -1525 -146 -22 -414 -22 -560 0 -710 105
-1284 583 -1520 1264 -64 187 -86 319 -92 551 -6 226 6 348 53 535 53 210 163
449 288 629 393 564 1058 867 1746 796z m-6950 -1612 l0 -181 53 -54 54 -53
1506 0 1507 0 0 -170 0 -170 -1509 0 -1508 0 -51 -50 -52 -51 -2 -185 -3 -186
-373 317 c-263 223 -370 321 -363 328 35 35 727 636 734 636 4 1 7 -81 7 -181z
m4669 -3057 c93 -13 130 -35 159 -91 18 -37 22 -60 22 -147 l0 -103 -1211 0
-1211 0 4 119 c3 129 11 150 71 195 26 19 41 20 385 18 196 -1 501 5 677 13
351 15 983 13 1104 -4z"/>
<path d="M5724 9207 c-2 -7 -3 -87 -2 -177 l3 -165 693 -3 692 -2 0 180 0 180
-690 0 c-554 0 -692 -3 -696 -13z"/>
<path d="M4682 8348 l3 -173 1040 0 1040 0 3 173 2 172 -1045 0 -1045 0 2
-172z"/>
<path d="M3990 2285 l0 -175 1040 0 1040 0 0 175 0 175 -1040 0 -1040 0 0
-175z"/>
<path d="M5030 1610 l0 -180 695 0 695 0 0 180 0 180 -695 0 -695 0 0 -180z"/>
<path d="M1469 8197 c-91 -60 -87 -189 7 -237 24 -12 69 -15 242 -12 118 1
241 -2 275 -8 86 -14 177 -61 227 -118 37 -41 80 -110 80 -127 0 -3 -179 -5
-397 -5 -446 0 -451 -1 -485 -70 -35 -69 -11 -151 52 -182 32 -16 74 -18 433
-18 240 0 397 -4 397 -9 0 -23 -91 -140 -136 -173 -89 -68 -109 -72 -389 -73
-171 -1 -262 -5 -287 -14 -64 -21 -100 -98 -79 -164 8 -22 140 -161 434 -454
370 -370 427 -422 460 -428 46 -9 85 6 123 46 24 26 29 39 29 83 l0 53 -293
299 -292 299 79 7 c176 15 306 69 419 174 88 81 159 186 192 282 l25 72 220 0
c201 0 223 2 252 20 39 23 63 67 63 115 0 48 -24 92 -63 115 -29 18 -51 20
-253 20 l-221 0 -23 63 c-12 34 -37 89 -54 122 -17 33 -32 63 -34 68 -2 4 125
7 282 7 l286 0 37 33 c31 29 37 41 40 88 4 45 1 60 -19 89 -14 20 -38 40 -58
47 -26 9 -231 12 -786 12 l-751 1 -34 -23z"/>
<path d="M9575 4410 c-17 -3 -38 -11 -47 -16 -9 -5 -328 -317 -708 -693 l-690
-683 -298 290 c-163 159 -308 302 -321 316 -33 35 -108 57 -155 46 -113 -25
-178 -150 -128 -246 30 -57 787 -809 834 -829 49 -20 94 -19 143 4 27 13 280
259 802 782 655 658 763 770 772 804 14 53 14 69 -4 113 -36 85 -118 131 -200
112z"/>
</g>
</svg>
