<svg width="1600" height="715" viewBox="0 0 1600 715" fill="none" xmlns="http://www.w3.org/2000/svg">
<mask id="mask0_39_16" style="mask-type:alpha" maskUnits="userSpaceOnUse" x="0" y="0" width="1600" height="715">
<rect width="1600" height="715" fill="#E3E3E3"/>
</mask>
<g mask="url(#mask0_39_16)">
<path d="M1550.83 -22.4975C1568.55 -22.4791 1583.72 -16.1541 1596.32 -3.52238C1608.93 9.10932 1615.22 24.285 1615.2 42.0047C1615.18 59.7245 1608.86 74.887 1596.23 87.4925C1583.6 100.098 1568.42 106.391 1550.7 106.373C1532.98 106.355 1517.82 100.03 1505.21 87.3979C1492.61 74.7662 1486.31 59.5905 1486.33 41.8708C1486.35 24.1511 1492.68 8.98847 1505.31 -3.617C1517.94 -16.2225 1533.11 -22.516 1550.83 -22.4975ZM1164.22 -22.8995C1164.16 39.925 1175.91 98.6002 1199.48 153.126C1223.05 207.652 1255.22 255.341 1295.98 296.193C1336.75 337.044 1384.37 369.311 1438.85 392.994C1493.33 416.677 1551.98 428.551 1614.8 428.617L1614.7 525.27C1538.45 525.19 1467.32 510.887 1401.3 482.359C1335.29 453.832 1277.33 414.573 1227.45 364.584C1177.56 314.595 1138.43 256.562 1110.04 190.486C1081.65 124.411 1067.49 53.2485 1067.57 -22.9999L1164.22 -22.8995ZM1357.53 -22.6985C1357.49 13.2779 1364.17 46.7107 1377.56 77.5999C1390.95 108.489 1409.45 135.759 1433.05 159.41C1456.65 183.061 1483.88 201.614 1514.74 215.07C1545.61 228.526 1579.03 235.273 1615 235.311L1614.9 331.964C1565.5 331.912 1519.47 322.602 1476.8 304.032C1434.13 285.463 1396.7 260.052 1364.52 227.801C1332.33 195.55 1307 158.071 1288.52 115.363C1270.04 72.6554 1260.82 26.6014 1260.88 -22.799L1357.53 -22.6985Z" fill="#F1F1F1"/>
<path d="M6.94118 715C-1.56765 715 -8.85171 711.97 -14.911 705.911C-20.9703 699.852 -24 692.568 -24 684.059C-24 675.55 -20.9703 668.266 -14.911 662.207C-8.85171 656.147 -1.56765 653.118 6.94118 653.118C15.45 653.118 22.7341 656.147 28.7934 662.207C34.8527 668.266 37.8824 675.55 37.8824 684.059C37.8824 692.568 34.8527 699.852 28.7934 705.911C22.7341 711.97 15.45 715 6.94118 715ZM192.588 715C192.588 684.832 186.916 656.663 175.571 630.492C164.225 604.321 148.755 581.437 129.159 561.841C109.563 542.245 86.6792 526.775 60.5081 515.429C34.337 504.084 6.16765 498.412 -24 498.412V452C12.6137 452 46.7779 458.833 78.4927 472.499C110.207 486.164 138.054 504.987 162.034 528.966C186.013 552.946 204.836 580.793 218.501 612.507C232.167 644.222 239 678.386 239 715H192.588ZM99.7647 715C99.7647 697.725 96.5417 681.674 90.0956 666.848C83.6495 652.022 74.7539 638.936 63.4088 627.591C52.0637 616.246 38.9782 607.35 24.1522 600.904C9.32623 594.458 -6.72451 591.235 -24 591.235V544.824C-0.278433 544.824 21.8316 549.271 42.3302 558.167C62.8287 567.063 80.8132 579.246 96.2838 594.716C111.754 610.187 123.938 628.171 132.833 648.67C141.729 669.168 146.176 691.278 146.176 715H99.7647Z" fill="#F1F1F1"/>
</g>
</svg>
